
<!DOCTYPE svg PUBLIC "-//W3C//DTD SVG 1.1//EN" "http://www.w3.org/Graphics/SVG/1.1/DTD/svg11.dtd">
<svg xmlns="http://www.w3.org/2000/svg" version="1.1" width="800px" height="800px" style="shape-rendering:geometricPrecision; text-rendering:geometricPrecision; image-rendering:optimizeQuality; fill-rule:evenodd; clip-rule:evenodd" xmlns:xlink="http://www.w3.org/1999/xlink">
<g><path style="opacity:0.87" fill="#b88700" d="M 184.5,54.5 C 186.435,55.1495 188.435,55.4828 190.5,55.5C 190.66,57.1992 190.494,58.8659 190,60.5C 183.723,75.3873 177.723,90.3873 172,105.5C 170.954,107.09 169.787,108.59 168.5,110C 160.18,114.069 152.68,119.235 146,125.5C 138.21,139.292 128.877,151.958 118,163.5C 116.877,166.249 115.377,168.749 113.5,171C 116.082,170.745 118.748,170.578 121.5,170.5C 121.628,172.655 121.128,174.655 120,176.5C 114.167,186.333 106.333,194.167 96.5,200C 93.2959,202.869 90.4626,206.035 88,209.5C 82.5486,223.07 76.5486,236.404 70,249.5C 63.2987,266.637 58.9654,284.304 57,302.5C 57.6937,299.14 59.6937,297.14 63,296.5C 64.746,292.673 66.746,289.007 69,285.5C 70.1096,283.963 71.6096,283.297 73.5,283.5C 73.6602,285.199 73.4935,286.866 73,288.5C 48.2725,333.074 42.2725,379.407 55,427.5C 57.451,412.794 60.1177,398.127 63,383.5C 64.0793,381.606 65.4126,381.273 67,382.5C 64.5548,400.34 61.7215,418.174 58.5,436C 63.1127,468.505 72.9461,499.338 88,528.5C 97.3333,541.167 106.667,553.833 116,566.5C 112.628,555.393 108.628,544.393 104,533.5C 103.506,531.866 103.34,530.199 103.5,528.5C 105.722,528.178 107.556,528.845 109,530.5C 112.86,541.081 116.527,551.748 120,562.5C 121.746,566.327 123.746,569.993 126,573.5C 133.816,582.47 141.149,591.804 148,601.5C 160.944,614.783 174.777,626.95 189.5,638C 199.485,643.994 209.818,649.494 220.5,654.5C 216.884,650.368 212.717,646.035 208,641.5C 202.582,634.665 198.749,626.998 196.5,618.5C 196.527,616.296 197.527,615.462 199.5,616C 202.791,620.748 205.958,625.581 209,630.5C 219.467,639.793 228.634,650.126 236.5,661.5C 238.742,663.539 241.242,665.205 244,666.5C 244.483,667.448 244.649,668.448 244.5,669.5C 246.527,669.338 248.527,669.505 250.5,670C 257.34,673.25 263.673,677.25 269.5,682C 282.415,688.194 295.415,694.194 308.5,700C 311.477,702.119 311.144,703.286 307.5,703.5C 299.52,702.451 291.854,700.285 284.5,697C 273.122,692.322 261.788,687.655 250.5,683C 232.37,670.211 213.704,658.211 194.5,647C 191.265,646.763 188.098,647.263 185,648.5C 179.803,646.152 174.637,643.652 169.5,641C 157.495,637.666 145.495,634.333 133.5,631C 129.993,629.67 128.327,627.17 128.5,623.5C 133.232,623.378 137.898,623.878 142.5,625C 153.539,628.571 164.539,631.905 175.5,635C 151.456,613.286 127.79,591.286 104.5,569C 87.8016,556.309 72.3016,542.142 58,526.5C 52.8967,516.624 46.5634,507.624 39,499.5C 37.7428,497.487 36.9095,495.321 36.5,493C 36.3875,491.338 37.0542,490.171 38.5,489.5C 46.1459,492.979 52.8125,497.812 58.5,504C 64.2304,507.062 69.3971,510.896 74,515.5C 61.2185,489.42 52.8852,461.753 49,432.5C 35.0179,410.042 22.1846,386.875 10.5,363C 11.5176,360.005 13.1843,359.672 15.5,362C 28.1116,374.954 37.945,389.787 45,406.5C 41.4603,366.703 44.2937,327.37 53.5,288.5C 52.6376,286.913 51.9709,285.246 51.5,283.5C 53.8675,259.962 57.5342,236.628 62.5,213.5C 60.8618,208.259 60.3618,202.925 61,197.5C 63.276,194.936 65.276,195.27 67,198.5C 67.3436,210.559 68.3436,222.559 70,234.5C 82.2071,203.895 95.2071,173.562 109,143.5C 113.202,131.229 117.202,118.895 121,106.5C 123.8,104.882 125.3,105.715 125.5,109C 121.967,122.701 119.467,136.535 118,150.5C 122.24,145.683 126.24,140.683 130,135.5C 138.744,117.677 147.744,100.011 157,82.5C 158.438,77.1398 159.938,71.8065 161.5,66.5C 165.158,64.6763 166.825,65.843 166.5,70C 165.673,80.1262 163.84,89.9596 161,99.5C 163.744,97.0163 165.744,94.0163 167,90.5C 171.472,79.4183 176.138,68.4183 181,57.5C 182.145,56.3636 183.312,55.3636 184.5,54.5 Z M 155.5,96.5 C 155.715,105.053 152.382,111.719 145.5,116.5C 148.325,109.516 151.659,102.849 155.5,96.5 Z M 94.5,189.5 C 100.813,177.205 106.313,164.538 111,151.5C 110.158,156.506 109.825,161.506 110,166.5C 105.753,174.89 100.587,182.557 94.5,189.5 Z M 63.5,230.5 C 64.2997,235.17 64.9664,240.004 65.5,245C 62.8029,252.758 60.3029,260.592 58,268.5C 59.2834,255.795 61.1167,243.128 63.5,230.5 Z M 28.5,386.5 C 32.1745,390.507 34.8412,395.173 36.5,400.5C 33.331,396.167 30.6643,391.5 28.5,386.5 Z M 44.5,498.5 C 54.7726,506.262 64.9393,514.262 75,522.5C 82.3328,531.824 88.6661,541.824 94,552.5C 96.3722,554.703 98.5389,557.037 100.5,559.5C 98.0676,558.25 95.7343,556.75 93.5,555C 82.3333,543.833 71.1667,532.667 60,521.5C 55.8139,513.114 50.6472,505.447 44.5,498.5 Z M 100.5,559.5 C 103.362,560.247 105.362,561.914 106.5,564.5C 104.091,563.299 102.091,561.633 100.5,559.5 Z M 224.5,657.5 C 226.404,657.738 227.738,658.738 228.5,660.5C 226.596,660.262 225.262,659.262 224.5,657.5 Z"/></g>
<g><path style="opacity:0.871" fill="#b88700" d="M 640.5,56.5 C 643.016,56.7553 645.35,57.5886 647.5,59C 652.249,62.7559 657.249,66.0892 662.5,69C 663.672,69.3534 664.838,69.1868 666,68.5C 666.945,68.9054 667.612,69.572 668,70.5C 667.293,82.8088 666.46,95.1422 665.5,107.5C 665.918,111.843 666.418,116.176 667,120.5C 668.771,110.145 670.605,99.8114 672.5,89.5C 676.921,89.8911 678.587,92.3911 677.5,97C 676.285,106.907 674.619,116.74 672.5,126.5C 673.35,131.901 674.517,137.234 676,142.5C 680.064,148.236 683.73,154.236 687,160.5C 693.333,167.5 699.667,174.5 706,181.5C 709.806,190.446 714.139,199.112 719,207.5C 718.695,197.025 720.695,187.025 725,177.5C 726.667,176.167 728.333,176.167 730,177.5C 731.052,192.61 730.218,207.61 727.5,222.5C 730.567,230.867 733.734,239.2 737,247.5C 740.936,269.514 746.269,291.18 753,312.5C 757.288,327.893 759.954,343.56 761,359.5C 761.333,360.167 761.667,360.833 762,361.5C 768.35,348.136 774.683,334.803 781,321.5C 783.662,316.531 785.828,316.531 787.5,321.5C 785.567,328.037 783.067,334.37 780,340.5C 774,351.167 768,361.833 762,372.5C 759.731,394.985 756.398,417.318 752,439.5C 747.506,454.312 743.839,469.312 741,484.5C 739.361,487.742 738.361,491.076 738,494.5C 742.58,488.34 746.914,482.007 751,475.5C 755.352,471.237 760.519,469.07 766.5,469C 769.108,473.153 768.941,477.32 766,481.5C 752.691,495.141 739.025,508.475 725,521.5C 724.261,524.102 722.595,525.769 720,526.5C 712.151,544.683 700.818,560.349 686,573.5C 680.724,581.711 674.724,589.377 668,596.5C 664.861,604.112 661.194,611.446 657,618.5C 654.872,621.63 652.372,624.463 649.5,627C 655.808,626.193 661.808,624.193 667.5,621C 674.452,619.603 681.452,619.27 688.5,620C 689.772,622.044 689.439,623.878 687.5,625.5C 676.771,631.935 665.104,635.435 652.5,636C 647.084,638.139 641.751,640.472 636.5,643C 630.833,644 625.167,645 619.5,646C 614.587,648.618 610.254,651.952 606.5,656C 602.101,656.817 597.768,657.817 593.5,659C 576,668.58 559,678.913 542.5,690C 529.824,696.003 516.49,698.836 502.5,698.5C 502.5,697.5 502.5,696.5 502.5,695.5C 509.977,694.297 517.31,692.464 524.5,690C 535.457,683.901 546.79,678.568 558.5,674C 561.997,671.417 565.664,669.084 569.5,667C 579.667,658.167 589.167,648.667 598,638.5C 602.275,631.901 605.108,624.734 606.5,617C 611.321,616.325 613.321,618.491 612.5,623.5C 610.475,632.067 607.975,640.4 605,648.5C 609.233,645.271 613.733,642.438 618.5,640C 625.394,633.269 632.727,627.103 640.5,621.5C 648.187,612.981 655.687,604.314 663,595.5C 673.905,573.814 679.405,550.814 679.5,526.5C 681.451,526.227 682.951,526.893 684,528.5C 684.504,540.522 684.504,552.522 684,564.5C 688.503,558.165 692.503,551.498 696,544.5C 726.222,516.053 741.055,481.053 740.5,439.5C 739.192,430.199 738.025,420.866 737,411.5C 735.607,407.714 733.941,404.048 732,400.5C 730.957,397.243 730.457,393.91 730.5,390.5C 732.199,390.34 733.866,390.506 735.5,391C 742.759,399.421 746.926,409.255 748,420.5C 748.64,410.13 749.64,399.797 751,389.5C 751.899,384.236 753.565,379.236 756,374.5C 755.542,355.958 753.209,337.625 749,319.5C 747.877,316.751 746.377,314.251 744.5,312C 733.633,302.628 722.967,293.128 712.5,283.5C 713.693,281.616 715.359,281.116 717.5,282C 722.755,285.251 727.422,289.251 731.5,294C 734.418,295.709 737.252,297.542 740,299.5C 739.967,295.188 739.634,290.855 739,286.5C 733.997,272.156 728.997,257.822 724,243.5C 723.667,237.833 723.333,232.167 723,226.5C 722.057,223.6 720.39,221.267 718,219.5C 716.803,216.911 715.803,214.244 715,211.5C 709.909,204.32 704.576,197.32 699,190.5C 695.426,182.347 691.093,174.68 686,167.5C 680.209,163.378 674.709,158.878 669.5,154C 665.326,151.412 660.993,149.079 656.5,147C 654.415,145.959 652.748,144.459 651.5,142.5C 652.452,140.488 654.119,139.488 656.5,139.5C 660.074,139.691 663.407,140.691 666.5,142.5C 666.833,142.167 667.167,141.833 667.5,141.5C 659.686,121.599 655.52,100.933 655,79.5C 652.254,72.0101 647.588,66.0101 641,61.5C 640.506,59.8659 640.34,58.1992 640.5,56.5 Z M 657.5,71.5 C 659.586,74.5251 661.253,77.8584 662.5,81.5C 661.732,85.4452 661.232,89.4452 661,93.5C 660.93,85.9645 659.763,78.6311 657.5,71.5 Z M 674.5,151.5 C 673.317,150.496 671.984,149.662 670.5,149C 672.945,148.09 674.278,148.924 674.5,151.5 Z M 725.5,189.5 C 726.147,190.274 726.48,191.274 726.5,192.5C 725.85,197.149 725.35,201.816 725,206.5C 724.313,200.796 724.479,195.13 725.5,189.5 Z M 744.5,441.5 C 745.376,441.369 746.043,441.702 746.5,442.5C 745.846,444.115 745.346,445.782 745,447.5C 744.505,445.527 744.338,443.527 744.5,441.5 Z M 746.5,492.5 C 749.14,485.059 753.806,479.225 760.5,475C 764.011,474.548 764.511,475.715 762,478.5C 756.664,483.004 751.497,487.671 746.5,492.5 Z M 705.5,542.5 C 703.262,547.071 700.262,551.071 696.5,554.5C 698.043,549.418 701.043,545.418 705.5,542.5 Z M 663.5,628.5 C 667.71,625.781 672.377,624.614 677.5,625C 673.104,627.299 668.438,628.466 663.5,628.5 Z M 641.5,627.5 C 640.746,629.446 639.412,630.279 637.5,630C 638.471,628.519 639.804,627.685 641.5,627.5 Z M 630.5,637.5 C 634.339,637.612 634.339,638.279 630.5,639.5C 629.537,639.03 629.537,638.363 630.5,637.5 Z M 585.5,658.5 C 590.802,654.03 595.636,649.03 600,643.5C 599.626,646.275 598.626,648.942 597,651.5C 593.264,654.086 589.43,656.419 585.5,658.5 Z"/></g>
<g><path style="opacity:1" fill="#c69e38" d="M 394.5,221.5 C 397.114,224.7 399.281,228.367 401,232.5C 404.239,235.983 407.239,239.65 410,243.5C 410.857,254.07 413.357,264.237 417.5,274C 417,274.5 416.5,275 416,275.5C 414.732,270.363 413.066,265.363 411,260.5C 410.005,255.547 409.338,250.547 409,245.5C 406.05,240.882 402.716,236.548 399,232.5C 397.487,228.812 395.987,225.145 394.5,221.5 Z"/></g>
<g><path style="opacity:1" fill="#c59c35" d="M 471.5,647.5 C 472.167,647.5 472.5,647.833 472.5,648.5C 472.27,654.543 474.936,658.71 480.5,661C 491.022,663.665 500.189,661.165 508,653.5C 510.208,650.446 511.208,647.113 511,643.5C 503.592,650.621 494.758,653.955 484.5,653.5C 484.5,653.167 484.5,652.833 484.5,652.5C 495.792,652.603 504.959,648.27 512,639.5C 512.202,627.583 510.536,615.916 507,604.5C 504.457,601.507 504.791,598.507 508,595.5C 508.66,592.466 508.16,589.633 506.5,587C 508.588,582.576 511.755,579.076 516,576.5C 516.5,575 517,573.5 517.5,572C 516.284,548.424 514.284,524.924 511.5,501.5C 511.765,496.941 512.432,492.441 513.5,488C 513.27,484.408 512.27,481.075 510.5,478C 511.022,477.439 511.355,476.772 511.5,476C 510.075,472.479 509.408,468.812 509.5,465C 510.301,454.792 511.468,444.625 513,434.5C 519.953,406.903 524.12,378.903 525.5,350.5C 525.328,345.798 524.828,341.132 524,336.5C 521.297,339.538 518.297,342.205 515,344.5C 513.959,355.333 511.959,366 509,376.5C 507.377,378.628 505.211,379.961 502.5,380.5C 501.96,381.748 501.293,382.915 500.5,384C 497.443,384.256 494.443,384.756 491.5,385.5C 488.118,384.754 484.785,384.421 481.5,384.5C 475.876,387.542 474.542,386.209 477.5,380.5C 476.675,379.614 475.675,379.281 474.5,379.5C 478.401,370.245 481.234,360.578 483,350.5C 494.462,335.546 500.295,318.546 500.5,299.5C 500.194,296.615 500.527,293.948 501.5,291.5C 503.26,314.143 497.427,334.477 484,352.5C 482.606,359.979 480.773,367.313 478.5,374.5C 479.376,374.369 480.043,374.702 480.5,375.5C 475.878,387.836 477.045,388.503 484,377.5C 485.441,379.305 485.608,381.305 484.5,383.5C 489.246,383.112 493.912,383.112 498.5,383.5C 500.188,381.971 501.521,380.137 502.5,378C 505.191,378.054 507.024,376.887 508,374.5C 512.801,350.284 517.135,325.951 521,301.5C 523.379,293.229 525.546,284.895 527.5,276.5C 524.908,274.145 525.075,272.145 528,270.5C 526.646,265.537 528.313,261.87 533,259.5C 538.047,243.953 537.38,228.619 531,213.5C 525.743,202.65 520.743,191.65 516,180.5C 511.927,172.86 506.76,166.026 500.5,160C 489.489,154.996 478.155,150.829 466.5,147.5C 460.668,152.323 457.001,158.49 455.5,166C 453.833,166.667 452.167,166.667 450.5,166C 448.083,164.374 445.583,162.874 443,161.5C 440.19,163.456 438.69,166.123 438.5,169.5C 437.662,169.158 437.328,168.492 437.5,167.5C 437.351,166.448 437.517,165.448 438,164.5C 443.896,159.949 448.229,154.282 451,147.5C 451.833,144.167 452.667,140.833 453.5,137.5C 451.799,135.789 450.466,133.789 449.5,131.5C 448.604,132.506 447.938,132.506 447.5,131.5C 450.308,127.614 451.308,123.447 450.5,119C 457.313,114.302 459.813,107.802 458,99.5C 456.166,98.5046 454.999,97.0046 454.5,95C 455.252,92.8463 455.419,90.6797 455,88.5C 453.2,84.4825 451.533,80.4825 450,76.5C 445.273,73.545 440.773,70.2117 436.5,66.5C 433.561,67.7946 431.061,67.128 429,64.5C 424.253,65.0433 419.587,66.0433 415,67.5C 414.127,67.2645 413.293,66.9312 412.5,66.5C 409.735,68.6006 406.735,70.2673 403.5,71.5C 395.006,82.4672 393.673,94.3005 399.5,107C 399.167,108 398.833,109 398.5,110C 400.662,113.489 401.829,117.322 402,121.5C 405.405,125.684 408.072,130.35 410,135.5C 416.515,145.501 425.015,148.501 435.5,144.5C 434.619,145.971 433.286,146.804 431.5,147C 428.443,147.256 425.443,147.756 422.5,148.5C 421.914,148.291 421.414,147.957 421,147.5C 420.667,149.167 420.333,150.833 420,152.5C 418.414,153.376 416.914,154.376 415.5,155.5C 413.632,159.403 411.632,163.236 409.5,167C 410.418,171.758 411.751,176.424 413.5,181C 410.203,188.43 407.036,195.93 404,203.5C 402.383,213.548 403.883,223.048 408.5,232C 407.668,232.688 407.002,232.521 406.5,231.5C 398.709,214.945 400.209,199.278 411,184.5C 410.994,179.457 410.328,174.457 409,169.5C 405.042,176.256 402.709,183.589 402,191.5C 399.114,201.053 392.948,207.219 383.5,210C 381.5,210.667 379.5,210.667 377.5,210C 372.801,206.981 369.301,203.148 367,198.5C 370.775,203.113 375.275,206.78 380.5,209.5C 387.417,208.796 392.584,205.463 396,199.5C 397.941,195.952 399.607,192.286 401,188.5C 408.451,168.645 404.451,151.645 389,137.5C 388.383,133.413 386.216,130.58 382.5,129C 370.201,125.971 363.201,130.637 361.5,143C 361.164,144.03 360.497,144.53 359.5,144.5C 361.87,127.978 370.87,122.812 386.5,129C 389.102,135.613 393.268,141.113 399,145.5C 402.307,151.084 404.641,157.084 406,163.5C 409.95,159.261 414.116,155.261 418.5,151.5C 419.631,149.926 419.798,148.259 419,146.5C 411.627,141.933 406.793,135.433 404.5,127C 402.646,125.477 401.146,123.644 400,121.5C 399.932,116.997 398.765,112.83 396.5,109C 397.022,108.439 397.355,107.772 397.5,107C 392.532,94.4328 393.698,82.5995 401,71.5C 404.046,70.0347 406.879,68.2013 409.5,66C 413.473,65.7195 417.306,64.8862 421,63.5C 423.333,64.8333 425.667,64.8333 428,63.5C 433.721,63.955 438.554,66.1217 442.5,70C 445.471,72.0307 448.637,73.8641 452,75.5C 454.108,80.316 455.941,85.316 457.5,90.5C 454.974,93.5166 455.307,95.8499 458.5,97.5C 460.404,103.102 460.237,108.769 458,114.5C 456.807,116.605 455.14,118.272 453,119.5C 452.547,122.84 452.047,126.174 451.5,129.5C 451.662,133.326 453.662,134.993 457.5,134.5C 457.491,136.308 457.991,137.975 459,139.5C 462.333,141.247 465.167,143.58 467.5,146.5C 479.168,149.778 490.502,153.945 501.5,159C 507.509,164.862 512.676,171.362 517,178.5C 522.473,191.25 528.139,203.917 534,216.5C 539.29,230.675 539.623,245.008 535,259.5C 532.807,261.36 530.974,263.526 529.5,266C 529.833,267 530.167,268 530.5,269C 528.12,277.691 526.287,286.524 525,295.5C 524.376,300.223 524.71,304.89 526,309.5C 528.336,315.007 530.169,320.674 531.5,326.5C 531.379,327.894 531.046,329.228 530.5,330.5C 528.684,331.815 527.017,333.315 525.5,335C 526.459,340.079 527.126,345.246 527.5,350.5C 525.858,378.21 521.692,405.543 515,432.5C 513.336,443.813 511.836,455.146 510.5,466.5C 512.323,473.457 513.989,480.457 515.5,487.5C 514.185,492.074 513.519,496.74 513.5,501.5C 514.833,507.503 514.833,513.337 513.5,519C 516.932,529.978 517.932,541.145 516.5,552.5C 518.328,560.412 518.828,568.412 518,576.5C 514.57,579.053 511.57,582.053 509,585.5C 508.922,588.371 509.422,591.205 510.5,594C 508.751,596.086 507.417,598.419 506.5,601C 508.761,603.772 510.261,606.938 511,610.5C 514.209,622.733 514.876,635.066 513,647.5C 511.632,650.186 510.299,652.853 509,655.5C 497.945,664.836 486.278,665.836 474,658.5C 471.922,655.13 471.089,651.463 471.5,647.5 Z M 407.5,163.5 C 408.239,163.369 408.906,163.536 409.5,164C 408.206,166.087 407.039,168.254 406,170.5C 405.185,167.802 405.685,165.468 407.5,163.5 Z M 454.5,135.5 C 456.728,139.728 460.061,143.062 464.5,145.5C 463.239,148.264 461.405,150.597 459,152.5C 457.143,156.874 455.31,161.207 453.5,165.5C 450.33,164.083 447.33,162.416 444.5,160.5C 451.308,153.644 454.641,145.311 454.5,135.5 Z M 522.5,301.5 C 523.727,308.331 525.893,314.998 529,321.5C 529.667,323.833 529.667,326.167 529,328.5C 524.824,332.875 520.658,337.209 516.5,341.5C 516.863,335 518.03,328.334 520,321.5C 521.09,314.858 521.923,308.192 522.5,301.5 Z"/></g>
<g><path style="opacity:1" fill="#d2b45f" d="M 437.5,167.5 C 437.328,168.492 437.662,169.158 438.5,169.5C 438.5,170.167 438.5,170.833 438.5,171.5C 437.527,173.948 437.194,176.615 437.5,179.5C 436.167,175.5 436.167,171.5 437.5,167.5 Z"/></g>
<g><path style="opacity:1" fill="#c2992f" d="M 438.5,171.5 C 438.421,204.96 442.255,237.96 450,270.5C 453.352,298.26 457.352,325.926 462,353.5C 462.788,359.22 462.621,364.886 461.5,370.5C 462,370.833 462.5,371.167 463,371.5C 467.676,368.999 472.509,367.999 477.5,368.5C 472.277,369.902 467.11,371.569 462,373.5C 460.72,373.387 459.887,372.72 459.5,371.5C 460.626,365.218 460.793,358.885 460,352.5C 456.851,331.121 453.518,309.788 450,288.5C 441.248,297.252 432.414,306.086 423.5,315C 415.061,317.869 406.728,321.036 398.5,324.5C 397.207,329.028 395.874,333.528 394.5,338C 391.854,338.497 389.187,338.664 386.5,338.5C 386.842,337.662 387.508,337.328 388.5,337.5C 390.722,337.822 392.556,337.155 394,335.5C 394.774,331.853 395.441,328.186 396,324.5C 404.126,320.232 412.626,316.732 421.5,314C 431.137,305.364 440.47,296.364 449.5,287C 444.675,287.115 440.675,289.115 437.5,293C 436.056,293.781 434.723,293.614 433.5,292.5C 438.437,286.398 442.77,279.898 446.5,273C 446.15,271.743 445.483,271.409 444.5,272C 440.45,276.595 436.283,281.095 432,285.5C 431.333,284.5 431.333,283.5 432,282.5C 436.065,275.985 439.565,269.152 442.5,262C 441.551,261.383 440.718,261.549 440,262.5C 435.917,268.331 432.084,274.331 428.5,280.5C 428.167,280.167 427.833,279.833 427.5,279.5C 430.966,272.872 434.633,266.372 438.5,260C 435.608,260.541 433.108,262.041 431,264.5C 427.706,270.253 424.54,276.087 421.5,282C 420.668,282.688 420.002,282.521 419.5,281.5C 425.277,269.36 424.444,268.694 417,279.5C 415.333,285.167 413.667,290.833 412,296.5C 411.535,297.931 410.701,299.097 409.5,300C 405.223,301.933 400.723,303.1 396,303.5C 388.384,301.846 380.718,300.512 373,299.5C 366.694,299.97 360.527,300.804 354.5,302C 359.457,299.967 364.623,298.467 370,297.5C 370.945,297.095 371.612,296.428 372,295.5C 372.057,289.172 371.723,282.839 371,276.5C 369.189,271.602 368.189,266.602 368,261.5C 372.651,273.405 374.484,285.738 373.5,298.5C 381.554,298.977 389.554,299.977 397.5,301.5C 401.388,301.278 405.054,300.278 408.5,298.5C 411.546,289.988 415.046,281.654 419,273.5C 421.19,271.612 423.023,269.445 424.5,267C 425.744,266.544 426.577,267.044 427,268.5C 429.48,262.849 433.647,259.182 439.5,257.5C 439.089,260.276 439.922,260.943 442,259.5C 443.059,259.63 443.892,260.13 444.5,261C 442.243,265.784 440.41,270.617 439,275.5C 440.685,273.983 442.185,272.316 443.5,270.5C 444.736,269.754 446.07,269.421 447.5,269.5C 444.811,254.885 442.311,240.219 440,225.5C 438.701,210.191 437.868,194.857 437.5,179.5C 437.194,176.615 437.527,173.948 438.5,171.5 Z M 447.5,273.5 C 449.025,276.75 450.025,280.25 450.5,284C 446.205,284.898 442.372,286.731 439,289.5C 441.52,284.133 444.353,278.8 447.5,273.5 Z"/></g>
<g><path style="opacity:1" fill="#c79f3c" d="M 499.5,281.5 C 499.167,281.5 498.833,281.5 498.5,281.5C 497.178,281.67 496.011,281.337 495,280.5C 494.374,278.287 494.541,276.12 495.5,274C 493.722,271.775 493.222,269.275 494,266.5C 494.75,265.874 495.584,265.374 496.5,265C 493.77,262.87 491.77,260.203 490.5,257C 491,256.5 491.5,256 492,255.5C 492.645,243.425 489.978,232.092 484,221.5C 483.333,220.167 483.333,218.833 484,217.5C 488.862,226.278 492.195,235.611 494,245.5C 495.008,249.771 494.508,253.771 492.5,257.5C 494.233,259.882 495.9,262.215 497.5,264.5C 497.124,266.383 496.124,267.883 494.5,269C 495.494,270.329 496.494,271.662 497.5,273C 496.541,275.12 496.374,277.287 497,279.5C 498.858,274.952 501.358,270.785 504.5,267C 508.033,266.097 511.367,266.43 514.5,268C 512.215,269.954 510.048,269.787 508,267.5C 505.097,268.069 503.097,269.735 502,272.5C 500.855,275.432 500.022,278.432 499.5,281.5 Z"/></g>
<g><path style="opacity:1" fill="#d2b35d" d="M 498.5,281.5 C 498.833,281.5 499.167,281.5 499.5,281.5C 500.222,281.918 500.722,282.584 501,283.5C 501.497,286.146 501.664,288.813 501.5,291.5C 500.527,293.948 500.194,296.615 500.5,299.5C 499.795,293.601 499.128,287.601 498.5,281.5 Z"/></g>
<g><path style="opacity:1" fill="#c59d36" d="M 429.5,387.5 C 429.815,391.371 429.482,395.038 428.5,398.5C 428.228,377.991 426.228,357.658 422.5,337.5C 421.5,337.167 420.833,336.5 420.5,335.5C 421.397,335.331 422.397,334.998 423.5,334.5C 421.947,329.577 421.114,324.577 421,319.5C 422.74,325.294 424.24,331.127 425.5,337C 433.833,338.902 442.167,338.735 450.5,336.5C 450.833,336.833 451.167,337.167 451.5,337.5C 443.014,340.46 434.348,341.127 425.5,339.5C 427.328,355.46 428.662,371.46 429.5,387.5 Z"/></g>
<g><path style="opacity:1" fill="#d4b664" d="M 385.5,336.5 C 386.791,336.263 387.791,336.596 388.5,337.5C 387.508,337.328 386.842,337.662 386.5,338.5C 378.316,338.826 370.316,338.492 362.5,337.5C 370.352,337.825 378.018,337.492 385.5,336.5 Z"/></g>
<g><path style="opacity:1" fill="#d3b462" d="M 358.5,356.5 C 360.337,356.639 360.67,357.306 359.5,358.5C 358.702,358.043 358.369,357.376 358.5,356.5 Z"/></g>
<g><path style="opacity:1" fill="#eaddb6" d="M 478.5,374.5 C 478.539,375.756 478.039,376.756 477,377.5C 476.415,376.002 476.915,375.002 478.5,374.5 Z"/></g>
<g><path style="opacity:1" fill="#bf9223" d="M 449.5,387.5 C 453.826,390.406 457.326,394.072 460,398.5C 460.676,408.534 461.343,418.534 462,428.5C 460.104,419.273 459.104,409.94 459,400.5C 458.529,398.754 457.862,397.087 457,395.5C 453.595,393.598 451.095,390.931 449.5,387.5 Z"/></g>
<g><path style="opacity:1" fill="#ceac55" d="M 429.5,387.5 C 430.326,392.316 430.826,397.316 431,402.5C 433.714,403.996 436.547,404.996 439.5,405.5C 436.941,405.198 434.607,405.532 432.5,406.5C 429.593,404.685 428.259,402.019 428.5,398.5C 429.482,395.038 429.815,391.371 429.5,387.5 Z"/></g>
<g><path style="opacity:1" fill="#c59d37" d="M 359.5,144.5 C 352.412,153.141 350.745,162.807 354.5,173.5C 353.389,174.611 352.722,175.945 352.5,177.5C 353.734,182.549 356.567,186.215 361,188.5C 361.834,193.17 362.668,197.837 363.5,202.5C 363.167,203.833 362.833,205.167 362.5,206.5C 356.322,202.816 352.989,204.649 352.5,212C 350.126,215.634 348.459,215.3 347.5,211C 342.495,210.083 338.328,211.583 335,215.5C 331.925,215.368 329.258,216.701 327,219.5C 326.28,221.112 326.446,222.612 327.5,224C 326.207,224.49 324.873,224.657 323.5,224.5C 323.318,226.591 323.652,228.591 324.5,230.5C 324.192,231.308 323.692,231.975 323,232.5C 321.914,244.637 321.58,256.971 322,269.5C 325.216,279.986 327.716,290.652 329.5,301.5C 330.478,301.977 331.311,302.643 332,303.5C 334.209,310.219 336.543,316.886 339,323.5C 342.159,327.659 345.659,331.492 349.5,335C 361.47,336.205 373.47,336.705 385.5,336.5C 378.018,337.492 370.352,337.825 362.5,337.5C 359.048,337.18 355.715,337.18 352.5,337.5C 349.123,336.729 346.289,335.062 344,332.5C 340.947,329.113 338.28,325.447 336,321.5C 334.307,315.392 332.307,309.392 330,303.5C 329.189,314.937 326.522,325.937 322,336.5C 320.455,343.27 319.288,350.103 318.5,357C 320.984,386.22 323.984,415.386 327.5,444.5C 325.945,451.439 325.445,458.439 326,465.5C 329.153,467.502 332.653,468.668 336.5,469C 338.87,471.502 340.203,474.502 340.5,478C 343.473,478.105 346.473,477.938 349.5,477.5C 352.486,477.382 355.152,478.048 357.5,479.5C 356.243,480.623 356.576,481.289 358.5,481.5C 356.824,482.71 355.49,482.21 354.5,480C 349.82,478.589 345.153,478.923 340.5,481C 331.372,489.062 321.705,496.395 311.5,503C 306.288,506.22 300.622,507.72 294.5,507.5C 293.199,496.727 288.366,494.727 280,501.5C 278,504.833 276,508.167 274,511.5C 270.998,522.508 265.665,532.175 258,540.5C 252.957,550.213 250.791,560.546 251.5,571.5C 250.662,571.842 250.328,572.508 250.5,573.5C 248.919,562.092 250.752,551.092 256,540.5C 258.333,538.167 260.667,535.833 263,533.5C 266.281,526.606 269.281,519.606 272,512.5C 274.634,506.728 278.134,501.561 282.5,497C 285.5,495 288.5,495 291.5,497C 294.034,499.984 296.201,503.151 298,506.5C 313.081,500.62 326.414,491.953 338,480.5C 338.79,477.366 338.457,474.366 337,471.5C 333.319,469.965 329.486,468.798 325.5,468C 324.042,465.923 323.376,463.59 323.5,461C 324.385,455.358 325.051,449.691 325.5,444C 322.256,416.051 319.59,388.051 317.5,360C 317.596,345.924 320.429,332.424 326,319.5C 327.825,309.851 327.825,300.184 326,290.5C 318.857,270.649 317.69,250.483 322.5,230C 320.421,225.953 321.421,223.286 325.5,222C 325.043,221.586 324.709,221.086 324.5,220.5C 327.362,216.233 331.362,213.733 336.5,213C 338.972,210.16 342.138,208.66 346,208.5C 347.987,209.154 349.32,210.487 350,212.5C 351.358,209.619 352.858,206.786 354.5,204C 356.769,203.242 358.936,203.409 361,204.5C 361.374,203.584 361.874,202.75 362.5,202C 361.189,198.646 360.356,195.146 360,191.5C 359,190.833 358,190.167 357,189.5C 354.192,185.855 352.025,181.855 350.5,177.5C 350.939,175.896 351.606,174.396 352.5,173C 349.584,164.159 350.417,155.659 355,147.5C 356.129,145.859 357.629,144.859 359.5,144.5 Z"/></g>
<g><path style="opacity:1" fill="#c2972f" d="M 432.5,406.5 C 434.607,405.532 436.941,405.198 439.5,405.5C 443.254,405.557 446.421,406.89 449,409.5C 452.333,416.167 455.667,422.833 459,429.5C 467.694,437.01 474.194,446.01 478.5,456.5C 478.167,457.167 477.833,457.833 477.5,458.5C 473.802,459.373 470.135,460.373 466.5,461.5C 465.553,467.816 465.553,474.15 466.5,480.5C 466.5,481.167 466.167,481.5 465.5,481.5C 464.68,475.203 464.347,468.869 464.5,462.5C 455.575,463.972 447.575,467.472 440.5,473C 439.216,473.684 438.049,473.517 437,472.5C 431.989,475.33 426.823,477.664 421.5,479.5C 421.19,482.713 421.523,485.713 422.5,488.5C 422.167,489.167 421.833,489.833 421.5,490.5C 419.734,492.771 417.734,494.937 415.5,497C 409.318,499.628 402.985,501.795 396.5,503.5C 394.501,505.493 393.001,507.827 392,510.5C 390.498,518.846 388.998,527.18 387.5,535.5C 386.833,535.5 386.5,535.167 386.5,534.5C 387.526,527.154 388.692,519.82 390,512.5C 390.353,509.461 391.52,506.795 393.5,504.5C 393,504.167 392.5,503.833 392,503.5C 377.506,507.609 363.339,512.609 349.5,518.5C 351.312,524.701 352.478,531.035 353,537.5C 353.5,548.828 353.667,560.162 353.5,571.5C 352.596,570.791 352.263,569.791 352.5,568.5C 352.618,557.473 352.118,546.473 351,535.5C 350.883,529.581 349.716,523.914 347.5,518.5C 338.231,521.854 328.897,525.021 319.5,528C 313.167,531.667 306.833,535.333 300.5,539C 297.612,542.222 295.112,545.722 293,549.5C 281.811,559.691 271.644,570.858 262.5,583C 255.161,584.169 251.161,581.002 250.5,573.5C 250.328,572.508 250.662,571.842 251.5,571.5C 251.571,576.65 253.905,580.317 258.5,582.5C 259.795,581.902 261.128,581.402 262.5,581C 267.951,573.214 273.785,565.714 280,558.5C 283.667,555.5 287.333,552.5 291,549.5C 293.56,544.884 296.727,540.718 300.5,537C 306.331,533.919 311.998,530.585 317.5,527C 337.28,520.406 356.947,513.406 376.5,506C 385.46,503.015 394.627,500.848 404,499.5C 410.229,498.336 415.229,495.336 419,490.5C 419.781,487.166 420.114,483.833 420,480.5C 417.118,482.702 413.951,483.869 410.5,484C 408.21,483.21 407.877,481.876 409.5,480C 409,478.5 408.5,477 408,475.5C 400.762,481.922 392.595,483.755 383.5,481C 380.608,483.557 377.441,485.724 374,487.5C 372.242,484.461 370.742,481.294 369.5,478C 365.496,478.057 361.829,479.224 358.5,481.5C 356.576,481.289 356.243,480.623 357.5,479.5C 361.243,478.466 364.91,477.132 368.5,475.5C 372.643,477.445 374.476,480.778 374,485.5C 377.441,483.724 380.608,481.557 383.5,479C 387.141,478.356 390.641,478.856 394,480.5C 399.276,479.613 403.776,477.279 407.5,473.5C 410.501,475.509 411.501,478.176 410.5,481.5C 411,481.833 411.5,482.167 412,482.5C 421.032,477.49 430.532,473.656 440.5,471C 451.312,463.464 463.312,458.964 476.5,457.5C 475.18,452.522 473.013,447.855 470,443.5C 465.667,438.833 461.333,434.167 457,429.5C 453.66,422.798 450.327,416.131 447,409.5C 442.484,407.08 437.651,406.08 432.5,406.5 Z"/></g>
<g><path style="opacity:1" fill="#cdaa4b" d="M 352.5,568.5 C 352.263,569.791 352.596,570.791 353.5,571.5C 353.819,576.363 353.486,581.03 352.5,585.5C 352.81,582.287 352.477,579.287 351.5,576.5C 351.194,573.615 351.527,570.948 352.5,568.5 Z"/></g>
<g><path style="opacity:1" fill="#c59d37" d="M 466.5,480.5 C 468.781,483.796 471.114,487.129 473.5,490.5C 469.646,500.301 469.646,510.135 473.5,520C 472.907,522.792 472.574,525.626 472.5,528.5C 473.341,536.541 474.508,544.541 476,552.5C 475.418,563.361 476.252,574.194 478.5,585C 477.614,587.808 477.447,590.641 478,593.5C 478.5,595.333 479.667,596.5 481.5,597C 488.957,597.379 496.291,597.545 503.5,597.5C 500.002,598.967 496.336,599.633 492.5,599.5C 488.156,599.214 483.823,598.88 479.5,598.5C 480.969,607.458 478.969,615.458 473.5,622.5C 473.167,622.5 472.833,622.5 472.5,622.5C 472.5,623.167 472.5,623.833 472.5,624.5C 464.75,629.414 458.083,635.58 452.5,643C 442.984,650.972 432.651,652.305 421.5,647C 417.172,643.997 415.339,639.83 416,634.5C 407.382,638.081 399.215,637.581 391.5,633C 387.5,632 383.5,631 379.5,630C 369.503,630.083 359.503,630.083 349.5,630C 346.066,628.471 344.4,625.804 344.5,622C 345.936,613.087 347.77,604.254 350,595.5C 351.012,589.204 351.512,582.871 351.5,576.5C 352.477,579.287 352.81,582.287 352.5,585.5C 352.665,588.518 352.498,591.518 352,594.5C 349.769,603.256 347.936,612.09 346.5,621C 346.267,626.767 349.1,629.601 355,629.5C 371.237,626.013 386.737,628.013 401.5,635.5C 406.774,634.864 411.941,633.864 417,632.5C 418.544,630.532 419.711,628.365 420.5,626C 418.5,623.333 416.5,620.667 414.5,618C 400.959,612.403 388.292,605.569 376.5,597.5C 376.636,591.001 377.136,584.334 378,577.5C 380.715,563.002 383.548,548.668 386.5,534.5C 386.5,535.167 386.833,535.5 387.5,535.5C 385.433,548.564 382.933,561.564 380,574.5C 378.764,582.136 378.43,589.803 379,597.5C 380.325,599.993 382.491,601.16 385.5,601C 394.696,606.766 404.362,611.766 414.5,616C 417.739,619.001 420.072,622.501 421.5,626.5C 423.308,626.509 424.975,626.009 426.5,625C 430.131,621.052 433.631,616.885 437,612.5C 437.167,612.167 437.333,611.833 437.5,611.5C 435.955,610.548 434.288,610.215 432.5,610.5C 432.298,608.011 432.798,605.677 434,603.5C 440.875,598.293 446.708,592.126 451.5,585C 450.604,577 448.938,569.167 446.5,561.5C 446.673,559.962 447.006,558.462 447.5,557C 444.496,550.497 442.329,543.997 441,537.5C 440.51,529.031 438.51,521.031 435,513.5C 434.215,508.124 433.215,502.791 432,497.5C 427.823,496.152 424.323,493.818 421.5,490.5C 421.833,489.833 422.167,489.167 422.5,488.5C 425.675,492.185 429.508,494.852 434,496.5C 434.619,504.564 436.619,512.23 440,519.5C 440.958,530.996 443.625,541.996 448,552.5C 450.688,564.131 452.354,575.798 453,587.5C 459.411,588.779 465.911,589.279 472.5,589C 475.679,588.82 477.012,587.154 476.5,584C 476.143,581.096 475.477,578.263 474.5,575.5C 474.833,574.167 475.167,572.833 475.5,571.5C 474.735,564.195 474.235,556.862 474,549.5C 471.186,539.968 470.353,530.302 471.5,520.5C 470.69,514.953 469.69,509.453 468.5,504C 468.794,499.656 469.794,495.489 471.5,491.5C 469.504,488.177 467.504,484.843 465.5,481.5C 466.167,481.5 466.5,481.167 466.5,480.5 Z M 472.5,622.5 C 463.128,628.034 455.128,635.2 448.5,644C 440.21,649.217 431.543,649.883 422.5,646C 417.467,642.1 416.3,637.267 419,631.5C 421.586,636.13 425.586,638.464 431,638.5C 440.755,637.55 449.922,634.716 458.5,630C 450.279,633.351 441.612,635.518 432.5,636.5C 429.001,636.599 425.668,635.932 422.5,634.5C 420.914,632.827 420.247,630.827 420.5,628.5C 422.564,628.313 424.564,627.813 426.5,627C 430.639,622.581 434.639,618.081 438.5,613.5C 439.246,612.264 439.579,610.93 439.5,609.5C 433.301,610.158 432.135,608.158 436,603.5C 441.5,599.333 446.333,594.5 450.5,589C 454.108,589.479 457.775,590.146 461.5,591C 463.918,595.506 467.251,599.173 471.5,602C 473.678,602.165 475.511,601.332 477,599.5C 478.405,603.072 478.738,606.739 478,610.5C 476.251,614.601 474.417,618.601 472.5,622.5 Z M 470.5,590.5 C 475.984,590.438 477.817,593.105 476,598.5C 473.451,601.006 470.951,600.84 468.5,598C 467.36,596.027 466.027,594.193 464.5,592.5C 466.631,591.831 468.631,591.165 470.5,590.5 Z"/></g>
<g><path style="opacity:1" fill="#cdab4e" d="M 472.5,622.5 C 472.833,622.5 473.167,622.5 473.5,622.5C 474.933,625.643 475.599,628.976 475.5,632.5C 473.029,641.679 476.029,648.346 484.5,652.5C 484.5,652.833 484.5,653.167 484.5,653.5C 479.32,652.488 475.82,649.488 474,644.5C 473.79,646.058 473.29,647.391 472.5,648.5C 472.5,647.833 472.167,647.5 471.5,647.5C 472.858,641.564 473.858,635.564 474.5,629.5C 473.826,627.805 473.159,626.138 472.5,624.5C 472.5,623.833 472.5,623.167 472.5,622.5 Z"/></g>
<g><path style="opacity:0.829" fill="#b78700" d="M 442.5,672.5 C 445.044,672.104 447.211,672.771 449,674.5C 452.433,683.239 452.266,691.906 448.5,700.5C 451.57,702.464 454.403,704.798 457,707.5C 458.726,713.032 459.726,718.699 460,724.5C 460.249,727.177 461.249,729.51 463,731.5C 468.171,723.828 472.838,715.828 477,707.5C 478.11,705.963 479.61,705.297 481.5,705.5C 481.452,709.813 480.285,713.813 478,717.5C 474.333,723.5 470.667,729.5 467,735.5C 462.337,738.836 459.004,737.836 457,732.5C 455.274,725.242 453.941,717.908 453,710.5C 451.019,708.343 448.686,706.676 446,705.5C 445,706.5 444,707.5 443,708.5C 442.708,719.221 441.875,729.887 440.5,740.5C 439.5,740.5 438.5,740.5 437.5,740.5C 437.752,731.819 437.918,723.152 438,714.5C 436.243,713.881 435.076,712.714 434.5,711C 435.5,708.667 436.5,706.333 437.5,704C 435.281,695.845 435.115,687.678 437,679.5C 437.967,676.379 439.8,674.046 442.5,672.5 Z M 443.5,677.5 C 444.586,677.62 445.253,678.287 445.5,679.5C 447.622,687.42 446.455,694.753 442,701.5C 440.464,695.251 440.13,688.917 441,682.5C 441.366,680.548 442.199,678.882 443.5,677.5 Z"/></g>
<g><path style="opacity:0.839" fill="#b88700" d="M 381.5,678.5 C 383.722,678.559 384.722,679.725 384.5,682C 379.117,699.796 376.617,717.963 377,736.5C 377.333,737.5 377.667,738.5 378,739.5C 380.919,734.66 384.086,729.994 387.5,725.5C 388.85,724.05 390.516,723.383 392.5,723.5C 392.66,725.199 392.494,726.866 392,728.5C 387.797,733.738 383.964,739.238 380.5,745C 377.044,745.855 374.544,744.689 373,741.5C 372.045,737.223 371.545,732.889 371.5,728.5C 372.34,719.128 373.173,709.794 374,700.5C 371.546,709.161 368.712,717.661 365.5,726C 363.888,726.72 362.388,726.554 361,725.5C 358.733,720.197 356.566,714.864 354.5,709.5C 352.646,721.958 350.146,734.291 347,746.5C 345.387,747.622 344.22,747.122 343.5,745C 347.956,725.482 350.622,705.815 351.5,686C 352.793,685.51 354.127,685.343 355.5,685.5C 356.715,696.787 359.215,707.787 363,718.5C 366.07,705.363 371.07,693.03 378,681.5C 379.145,680.364 380.312,679.364 381.5,678.5 Z"/></g>
<g><path style="opacity:0.846" fill="#b78700" d="M 410.5,704.5 C 418.618,705.389 421.118,709.722 418,717.5C 416.954,719.09 415.787,720.59 414.5,722C 416.534,725.014 418.868,725.181 421.5,722.5C 424.105,724.236 424.105,726.069 421.5,728C 424.397,729.715 425.731,732.215 425.5,735.5C 422.715,735.067 420.381,733.734 418.5,731.5C 415.342,734.828 412.342,738.328 409.5,742C 407.376,743.582 405.21,743.749 403,742.5C 400.919,734.648 402.419,727.482 407.5,721C 406.428,716.876 406.262,712.71 407,708.5C 407.69,706.65 408.856,705.316 410.5,704.5 Z M 411.5,709.5 C 415.344,711.291 415.511,713.625 412,716.5C 410.417,714.301 410.25,711.968 411.5,709.5 Z M 410.5,725.5 C 411.812,726.145 412.812,727.145 413.5,728.5C 405.448,739.127 404.448,738.127 410.5,725.5 Z"/></g>
</svg>
