<svg xmlns="http://www.w3.org/2000/svg" version="1.1" width="800px" height="800px" style="shape-rendering:geometricPrecision; text-rendering:geometricPrecision; image-rendering:optimizeQuality; fill-rule:evenodd; clip-rule:evenodd" xmlns:xlink="http://www.w3.org/1999/xlink">
<g><path style="opacity:0.996" fill="#f9f1d9" d="M -0.5,426.5 C -0.5,408.167 -0.5,389.833 -0.5,371.5C 11.4292,247.446 67.0959,148.28 166.5,74C 265.88,6.09807 374.547,-14.9019 492.5,11C 599.441,38.3499 682.274,98.5166 741,191.5C 798.567,290.025 813.234,394.692 785,505.5C 746.831,632.331 666.664,721.164 544.5,772C 467.869,800.913 389.536,806.58 309.5,789C 186.753,758.219 96.5862,686.719 39,574.5C 16.7463,527.478 3.57961,478.145 -0.5,426.5 Z"/></g>
<g><path style="opacity:1" fill="#bb8d14" d="M 49.5,470.5 C 50.961,475.787 51.6277,475.453 51.5,469.5C 53.8591,454.822 56.3591,440.156 59,425.5C 60.1096,423.963 61.6096,423.297 63.5,423.5C 59.598,441.011 56.598,458.677 54.5,476.5C 55.339,485.206 56.5056,493.873 58,502.5C 62,515.167 66,527.833 70,540.5C 75.1477,551.621 80.4811,562.621 86,573.5C 96.1052,585.604 105.439,598.271 114,611.5C 109.491,597.474 104.657,583.474 99.5,569.5C 103.382,570.211 105.882,572.544 107,576.5C 110.334,590.196 115.334,603.196 122,615.5C 131.167,626.667 140.333,637.833 149.5,649C 158.536,657.704 167.869,666.038 177.5,674C 190.655,682.468 204.322,690.135 218.5,697C 220.221,700.503 222.888,702.503 226.5,703C 218.311,695.809 210.477,688.309 203,680.5C 198.403,673.308 194.903,665.642 192.5,657.5C 194.903,657.393 196.736,658.393 198,660.5C 199.914,665.335 202.581,669.669 206,673.5C 216.609,683.104 226.109,693.604 234.5,705C 245.051,709.948 255.051,715.948 264.5,723C 277.713,729.44 291.047,735.607 304.5,741.5C 305.386,742.325 305.719,743.325 305.5,744.5C 300.021,744.026 294.687,742.86 289.5,741C 275.49,735.327 261.49,729.661 247.5,724C 229.37,711.211 210.704,699.211 191.5,688C 187.174,688.093 182.841,688.093 178.5,688C 173.864,685.682 169.198,683.349 164.5,681C 152.367,678.065 140.367,674.732 128.5,671C 127.333,669.833 126.167,668.667 125,667.5C 124.652,665.077 125.818,664.077 128.5,664.5C 131.179,664.936 133.845,665.436 136.5,666C 149.276,670.039 161.943,674.039 174.5,678C 149.866,655.7 125.532,633.034 101.5,610C 84.4677,596.975 68.6343,582.475 54,566.5C 48.8967,556.624 42.5634,547.624 35,539.5C 33.3814,537.044 32.8814,534.544 33.5,532C 34.5,531.333 35.5,531.333 36.5,532C 46.1667,539 55.8333,546 65.5,553C 68,555.5 70.5,558 73,560.5C 66.3487,548.51 60.682,535.843 56,522.5C 51.4743,506.008 47.8076,489.341 45,472.5C 32.1599,450.823 19.8265,428.823 8,406.5C 7.50999,405.207 7.34332,403.873 7.5,402.5C 12.4793,403.921 16.3127,406.921 19,411.5C 22.7541,417.342 26.7541,423.009 31,428.5C 34.9806,434.794 38.1473,441.461 40.5,448.5C 40.9867,449.473 41.4867,450.473 42,451.5C 42.8007,448.633 42.6341,445.966 41.5,443.5C 37.6318,404.095 40.6318,365.262 50.5,327C 50.3893,325.278 49.8893,325.112 49,326.5C 48.3333,322.167 48.3333,317.833 49,313.5C 51.9075,293.629 55.0741,273.795 58.5,254C 57.6818,248.529 57.3484,243.029 57.5,237.5C 59.9032,237.393 61.7365,238.393 63,240.5C 63.7089,244.868 63.5423,249.201 62.5,253.5C 65.0677,261.7 65.9011,270.034 65,278.5C 75.1641,253.168 86.1641,228.168 98,203.5C 105.187,185.46 111.52,167.127 117,148.5C 118.011,147.663 119.178,147.33 120.5,147.5C 117.877,162.85 115.377,178.183 113,193.5C 117.333,188.167 121.667,182.833 126,177.5C 134.744,159.677 143.744,142.011 153,124.5C 154.416,118.746 156.083,113.079 158,107.5C 159,106.167 160,106.167 161,107.5C 161.573,113.539 161.239,119.539 160,125.5C 158.294,131.931 156.627,138.264 155,144.5C 160.006,138.497 164.006,131.83 167,124.5C 169.746,115.928 173.079,107.594 177,99.5C 180.207,95.809 183.374,95.6423 186.5,99C 179.787,115.587 172.954,132.087 166,148.5C 164.833,149.667 163.667,150.833 162.5,152C 154.854,155.321 148.021,159.821 142,165.5C 134.21,179.292 124.877,191.958 114,203.5C 112.167,206.667 110.333,209.833 108.5,213C 110.49,212.862 112.49,212.362 114.5,211.5C 116,211.453 117,212.119 117.5,213.5C 111.409,225.091 102.743,234.258 91.5,241C 88.0673,244.042 85.234,247.542 83,251.5C 76,267.5 69,283.5 62,299.5C 56.8594,315.902 53.1927,332.569 51,349.5C 52.1446,344.179 54.9779,340.179 59.5,337.5C 61.0795,334.006 62.9128,330.673 65,327.5C 66.1096,325.963 67.6096,325.297 69.5,325.5C 63.8191,336.869 58.6524,348.535 54,360.5C 50.9988,372.505 47.9988,384.505 45,396.5C 44.7667,421.303 46.2667,445.969 49.5,470.5 Z"/></g>
<g><path style="opacity:1" fill="#bb8d14" d="M 636.5,98.5 C 638.655,98.372 640.655,98.872 642.5,100C 647.892,104.353 653.558,108.187 659.5,111.5C 660.428,109.665 661.594,109.332 663,110.5C 662.614,121.818 662.114,133.151 661.5,144.5C 661.43,150.564 661.93,156.564 663,162.5C 664.615,152.09 666.615,141.757 669,131.5C 670,130.167 671,130.167 672,131.5C 672.667,136.167 672.667,140.833 672,145.5C 670.703,152.984 669.536,160.484 668.5,168C 669.244,173.572 670.411,179.072 672,184.5C 676.064,190.236 679.73,196.236 683,202.5C 689.333,209.5 695.667,216.5 702,223.5C 705.806,232.446 710.139,241.112 715,249.5C 714.333,237.762 717.166,227.095 723.5,217.5C 724.478,217.977 725.311,218.643 726,219.5C 726.557,235.246 725.891,250.912 724,266.5C 732.506,286.022 738.173,306.356 741,327.5C 749.666,352.829 754.999,378.829 757,405.5C 763.581,392.754 769.581,379.754 775,366.5C 776.5,364.333 778,362.167 779.5,360C 780.448,359.517 781.448,359.351 782.5,359.5C 782.699,362.941 782.199,366.274 781,369.5C 777.727,375.712 774.727,382.046 772,388.5C 766.503,396.001 761.836,404.001 758,412.5C 755.11,445.84 748.777,478.507 739,510.5C 738.497,520.843 735.663,530.509 730.5,539.5C 731.355,540.293 732.189,539.96 733,538.5C 737.915,531.672 742.581,524.672 747,517.5C 750.79,513.686 755.29,511.02 760.5,509.5C 765.322,512.808 765.822,516.808 762,521.5C 746.592,537.075 731.092,552.409 715.5,567.5C 711.333,575.167 707.167,582.833 703,590.5C 689.641,604.864 676.974,619.864 665,635.5C 659.56,647.552 652.727,658.719 644.5,669C 653.098,666.382 661.765,663.715 670.5,661C 674.833,660.333 679.167,660.333 683.5,661C 684.554,662.388 684.72,663.888 684,665.5C 673.526,672.264 662.026,675.764 649.5,676C 642.167,679 634.833,682 627.5,685C 617.145,685.175 608.478,689.175 601.5,697C 597.853,697.774 594.186,698.441 590.5,699C 580.825,705.173 570.825,710.84 560.5,716C 545.634,728.264 528.634,735.931 509.5,739C 505.789,739.825 502.122,739.659 498.5,738.5C 505.209,735.898 512.209,733.731 519.5,732C 534.202,724.66 548.869,717.327 563.5,710C 572.667,701.5 581.833,693 591,684.5C 597.108,677.28 600.775,668.947 602,659.5C 604.276,656.936 606.276,657.27 608,660.5C 608.167,661.667 608.333,662.833 608.5,664C 606.298,672.606 603.298,680.939 599.5,689C 600.036,690.377 601.036,690.377 602.5,689C 606.898,685.606 611.565,682.606 616.5,680C 622.208,674.623 628.208,669.623 634.5,665C 642.705,656.464 650.538,647.631 658,638.5C 669.709,616.693 675.709,593.36 676,568.5C 677,567.167 678,567.167 679,568.5C 679.835,582.267 679.502,595.934 678,609.5C 683.42,602.333 688.087,594.667 692,586.5C 731.247,549.078 744.914,503.744 733,450.5C 729.031,444.763 727.198,438.43 727.5,431.5C 728.552,431.351 729.552,431.517 730.5,432C 733.021,434.22 735.188,436.72 737,439.5C 740.262,447.211 742.595,455.211 744,463.5C 744.7,452.804 745.7,442.138 747,431.5C 747.749,426.5 749.416,421.833 752,417.5C 752.514,398.91 750.514,380.577 746,362.5C 744.941,359.382 743.608,356.382 742,353.5C 731.793,344.291 721.293,335.457 710.5,327C 709.62,325.644 709.286,324.144 709.5,322.5C 712.016,322.755 714.35,323.589 716.5,325C 722.591,332.663 729.925,338.33 738.5,342C 736.641,336.688 735.474,331.188 735,325.5C 730.197,311.424 725.197,297.424 720,283.5C 719.667,277.833 719.333,272.167 719,266.5C 713.441,254.4 706.107,243.4 697,233.5C 693.588,226.342 689.922,219.342 686,212.5C 675.085,201.246 662.752,191.913 649,184.5C 648.14,181.522 649.307,180.188 652.5,180.5C 657.389,182.52 662.389,184.02 667.5,185C 665.083,183.337 663.25,181.171 662,178.5C 655.64,158.979 651.974,138.979 651,118.5C 647.467,111.96 642.8,106.294 637,101.5C 636.517,100.552 636.351,99.552 636.5,98.5 Z"/></g>
<g><path style="opacity:1" fill="#f9f1d9" d="M 384.5,378.5 C 383.791,377.596 382.791,377.263 381.5,377.5C 369.47,377.705 357.47,377.205 345.5,376C 341.65,372.451 338.15,368.617 335,364.5C 332.843,357.128 330.01,350.128 326.5,343.5C 326.158,342.662 325.492,342.328 324.5,342.5C 324.494,337.785 323.994,333.118 323,328.5C 319.308,319.537 317.474,310.204 317.5,300.5C 317.773,291.384 318.273,282.384 319,273.5C 319.692,272.975 320.192,272.308 320.5,271.5C 319.652,269.591 319.318,267.591 319.5,265.5C 320.873,265.657 322.207,265.49 323.5,265C 321.972,262.119 322.638,259.786 325.5,258C 329.844,256.59 333.844,254.59 337.5,252C 341.443,250.579 344.109,251.746 345.5,255.5C 348.465,253.316 350.132,250.316 350.5,246.5C 353.097,245.405 355.597,245.738 358,247.5C 359.046,246.228 359.546,244.728 359.5,243C 358.588,238.517 357.754,234.017 357,229.5C 352.748,227.239 349.915,223.739 348.5,219C 348.493,217.188 349.16,215.688 350.5,214.5C 346.745,203.807 348.412,194.141 355.5,185.5C 356.497,185.53 357.164,185.03 357.5,184C 359.495,171.321 366.828,166.654 379.5,170C 383.847,177.029 389.014,183.529 395,189.5C 397.839,195.016 399.672,200.85 400.5,207C 399.936,219.579 396.769,231.412 391,242.5C 387.267,247.117 382.434,249.784 376.5,250.5C 371.275,247.78 366.775,244.113 363,239.5C 370.485,254.021 380.152,255.355 392,243.5C 396.808,236.412 399.641,228.579 400.5,220C 402.006,216.806 403.506,213.64 405,210.5C 406.328,215.457 406.994,220.457 407,225.5C 396.209,240.278 394.709,255.945 402.5,272.5C 403.002,273.521 403.668,273.688 404.5,273C 399.883,264.048 398.383,254.548 400,244.5C 403.036,236.93 406.203,229.43 409.5,222C 407.751,217.424 406.418,212.758 405.5,208C 407.734,204.364 409.568,200.531 411,196.5C 414.862,195.234 416.862,192.567 417,188.5C 417.414,188.957 417.914,189.291 418.5,189.5C 421.443,188.756 424.443,188.256 427.5,188C 430.105,187.974 431.271,186.807 431,184.5C 424.221,188.76 417.721,188.26 411.5,183C 406.603,178.046 403.103,172.213 401,165.5C 400,164.833 399,164.167 398,163.5C 397.931,158.979 396.765,154.812 394.5,151C 394.833,150 395.167,149 395.5,148C 389.872,135.902 390.872,124.402 398.5,113.5C 401.59,112.3 404.257,110.467 406.5,108C 408.035,107.504 409.535,107.67 411,108.5C 415.587,107.043 420.253,106.043 425,105.5C 427.403,108.194 430.236,109.027 433.5,108C 437.38,111.548 441.547,114.714 446,117.5C 447.533,121.483 449.2,125.483 451,129.5C 449.35,133.902 450.35,137.568 454,140.5C 454.866,145.709 454.199,150.709 452,155.5C 450.981,156.687 449.814,157.687 448.5,158.5C 447.628,163.448 445.962,168.114 443.5,172.5C 443.938,173.506 444.604,173.506 445.5,172.5C 446.466,174.789 447.799,176.789 449.5,178.5C 448.436,184.427 446.602,190.094 444,195.5C 440.667,198.833 437.333,202.167 434,205.5C 433.007,208.408 432.507,211.408 432.5,214.5C 433.667,231.835 434.833,249.168 436,266.5C 438.505,281.181 441.005,295.847 443.5,310.5C 440.041,311.436 437.207,313.436 435,316.5C 435.984,312.835 437.317,309.168 439,305.5C 439.494,303.866 439.66,302.199 439.5,300.5C 438.178,300.33 437.011,300.663 436,301.5C 435.632,300.09 434.799,299.09 433.5,298.5C 428.806,301.027 425.306,304.694 423,309.5C 421.846,307.043 420.512,307.043 419,309.5C 412.319,316.865 408.319,325.532 407,335.5C 404.199,340.794 399.699,343.128 393.5,342.5C 385.554,340.977 377.554,339.977 369.5,339.5C 370.484,326.738 368.651,314.405 364,302.5C 364.189,307.602 365.189,312.602 367,317.5C 367.723,323.839 368.057,330.172 368,336.5C 367.612,337.428 366.945,338.095 366,338.5C 361.151,339.587 356.317,340.754 351.5,342C 350.304,342.654 350.304,343.154 351.5,343.5C 357.184,341.691 363.017,340.691 369,340.5C 376.624,341.823 384.291,342.823 392,343.5C 395.921,343.545 399.755,343.045 403.5,342C 405.667,341.167 407.167,339.667 408,337.5C 409.423,328.077 413.09,319.744 419,312.5C 418.365,315.899 417.199,319.232 415.5,322.5C 416.002,323.521 416.668,323.688 417.5,323C 420.461,317.578 423.294,312.078 426,306.5C 428.26,303.472 431.094,301.638 434.5,301C 430.707,307.419 427.04,313.919 423.5,320.5C 423.833,320.833 424.167,321.167 424.5,321.5C 428.126,315.078 432.126,308.911 436.5,303C 437.167,302.333 437.833,302.333 438.5,303C 435.067,311.02 431.567,318.853 428,326.5C 432.435,321.309 437.101,316.309 442,311.5C 442.635,313.635 442.301,315.635 441,317.5C 437.412,323.01 433.578,328.343 429.5,333.5C 430.365,334.583 431.365,334.749 432.5,334C 434.833,332.333 437.167,330.667 439.5,329C 441.447,328.009 443.447,327.675 445.5,328C 436.614,336.43 427.947,345.097 419.5,354C 410.878,357.321 402.211,360.654 393.5,364C 393,364.5 392.5,365 392,365.5C 391.441,369.186 390.774,372.853 390,376.5C 388.556,378.155 386.722,378.822 384.5,378.5 Z"/></g>
<g><path style="opacity:1" fill="#f5eaca" d="M 651.5,110.5 C 653.371,110.859 654.871,111.859 656,113.5C 656.101,116.921 656.934,120.088 658.5,123C 657.724,129.463 657.224,135.963 657,142.5C 656.667,136.167 656.333,129.833 656,123.5C 655.04,118.928 653.54,114.595 651.5,110.5 Z"/></g>
<g><path style="opacity:1" fill="#f5eaca" d="M 153.5,130.5 C 154.097,130.735 154.43,131.235 154.5,132C 152.061,138.32 150.227,144.82 149,151.5C 144.965,155.2 141.298,159.2 138,163.5C 143.102,152.622 148.269,141.622 153.5,130.5 Z"/></g>
<g><path style="opacity:1" fill="#f2e4be" d="M 165.5,137.5 C 165.744,142.134 163.744,145.968 159.5,149C 158.833,149.667 158.167,149.667 157.5,149C 160.777,145.563 163.443,141.729 165.5,137.5 Z"/></g>
<g><path style="opacity:1" fill="#f9f1d9" d="M 474.5,415.5 C 476.774,408.301 478.608,400.968 480,393.5C 492.125,377.23 497.959,358.897 497.5,338.5C 497.523,331.695 497.023,325.028 496,318.5C 496.792,313.544 499.459,310.211 504,308.5C 506.048,310.787 508.215,310.954 510.5,309C 506.899,307.068 503.232,307.068 499.5,309C 496.77,312.846 494.603,317.013 493,321.5C 492.34,318.953 492.507,316.453 493.5,314C 492.494,312.662 491.494,311.329 490.5,310C 492.124,308.883 493.124,307.383 493.5,305.5C 491.9,303.215 490.233,300.882 488.5,298.5C 490.508,294.771 491.008,290.771 490,286.5C 488.195,276.611 484.862,267.278 480,258.5C 480.134,262.797 481.467,266.797 484,270.5C 487.588,278.843 488.921,287.509 488,296.5C 487.5,297 487,297.5 486.5,298C 487.77,301.203 489.77,303.87 492.5,306C 488.921,308.646 488.588,311.646 491.5,315C 489.576,319.154 490.743,321.987 495,323.5C 498.554,344.968 495.22,365.301 485,384.5C 482.626,386.539 480.626,388.872 479,391.5C 477.234,401.578 474.401,411.245 470.5,420.5C 471.675,420.281 472.675,420.614 473.5,421.5C 472.652,423.409 472.318,425.409 472.5,427.5C 474.484,427.617 476.15,426.95 477.5,425.5C 480.785,425.421 484.118,425.754 487.5,426.5C 490.443,425.756 493.443,425.256 496.5,425C 497.293,423.915 497.96,422.748 498.5,421.5C 501.211,420.961 503.377,419.628 505,417.5C 507.959,407 509.959,396.333 511,385.5C 514.297,383.205 517.297,380.538 520,377.5C 521.459,393.174 521.126,408.841 519,424.5C 516.052,441.576 512.718,458.576 509,475.5C 507.468,485.625 506.301,495.792 505.5,506C 506.615,513.687 507.948,521.354 509.5,529C 508.432,533.441 507.765,537.941 507.5,542.5C 510.284,565.924 512.284,589.424 513.5,613C 512.932,614.872 512.265,616.705 511.5,618.5C 504.404,621.524 502.071,626.691 504.5,634C 503.317,636.542 502.317,639.209 501.5,642C 506.178,654.411 508.344,667.244 508,680.5C 500.994,689.251 491.828,693.585 480.5,693.5C 472.029,689.346 469.029,682.679 471.5,673.5C 471.626,670.148 470.959,666.981 469.5,664C 470.906,662.022 471.906,659.855 472.5,657.5C 473.558,656.4 474.392,655.066 475,653.5C 475.499,648.845 475.666,644.179 475.5,639.5C 479.823,639.88 484.156,640.214 488.5,640.5C 492.336,640.633 496.002,639.967 499.5,638.5C 492.291,638.545 484.957,638.379 477.5,638C 475.667,637.5 474.5,636.333 474,634.5C 473.447,631.641 473.614,628.808 474.5,626C 472.252,615.194 471.418,604.361 472,593.5C 470.508,585.541 469.341,577.541 468.5,569.5C 468.574,566.626 468.907,563.792 469.5,561C 465.685,551.109 465.685,541.275 469.5,531.5C 468.272,528.762 466.438,526.429 464,524.5C 461.731,517.272 461.231,509.939 462.5,502.5C 465.64,500.978 468.973,500.145 472.5,500C 473.516,499.481 474.182,498.647 474.5,497.5C 472.879,492.924 470.712,488.591 468,484.5C 463,478.833 458,473.167 453,467.5C 450.562,461.167 447.562,455.167 444,449.5C 441.507,447.664 438.674,446.664 435.5,446.5C 432.547,445.996 429.714,444.996 427,443.5C 426.826,438.316 426.326,433.316 425.5,428.5C 424.662,412.46 423.328,396.46 421.5,380.5C 430.348,382.127 439.014,381.46 447.5,378.5C 447.167,378.167 446.833,377.833 446.5,377.5C 438.167,379.735 429.833,379.902 421.5,378C 420.24,372.127 418.74,366.294 417,360.5C 417.114,365.577 417.947,370.577 419.5,375.5C 418.397,375.998 417.397,376.331 416.5,376.5C 418.806,378.959 419.973,381.959 420,385.5C 422.734,403.403 424.234,421.403 424.5,439.5C 424.076,443.002 425.41,445.335 428.5,446.5C 433.428,447.069 438.261,448.403 443,450.5C 446.327,457.131 449.66,463.798 453,470.5C 460.476,477.637 466.809,485.637 472,494.5C 472.49,495.793 472.657,497.127 472.5,498.5C 459.312,499.964 447.312,504.464 436.5,512C 426.532,514.656 417.032,518.49 408,523.5C 406.287,522.863 406.121,521.863 407.5,520.5C 406.228,514.008 403.562,513.175 399.5,518C 396.533,519.7 393.367,520.867 390,521.5C 386.641,519.856 383.141,519.356 379.5,520C 376.64,522.36 373.64,524.527 370.5,526.5C 370.514,521.846 368.514,518.513 364.5,516.5C 361.276,517.695 358.109,519.029 355,520.5C 348.6,518.215 342.1,517.882 335.5,519.5C 336.186,515.713 335.186,512.546 332.5,510C 328.653,509.668 325.153,508.502 322,506.5C 321.445,499.439 321.945,492.439 323.5,485.5C 319.984,456.386 316.984,427.22 314.5,398C 315.762,384.686 318.929,371.853 324,359.5C 324.498,356.518 324.665,353.518 324.5,350.5C 325.461,348.735 325.795,346.735 325.5,344.5C 328.262,350.167 330.428,356.167 332,362.5C 335.477,367.974 339.644,372.807 344.5,377C 349.137,377.829 353.804,378.329 358.5,378.5C 366.316,379.492 374.316,379.826 382.5,379.5C 386.287,380.186 389.454,379.186 392,376.5C 392.145,372.477 392.979,368.644 394.5,365C 402.833,362 411.167,359 419.5,356C 428.387,347.113 437.221,338.279 446,329.5C 449.518,350.788 452.851,372.121 456,393.5C 456.793,399.885 456.626,406.218 455.5,412.5C 455.887,413.72 456.72,414.387 458,414.5C 463.11,412.569 468.277,410.902 473.5,409.5C 468.509,408.999 463.676,409.999 459,412.5C 458.5,412.167 458,411.833 457.5,411.5C 458.621,405.886 458.788,400.22 458,394.5C 452.15,352.362 445.483,310.362 438,268.5C 436.076,248.201 435.076,227.868 435,207.5C 435.953,205.545 437.287,203.878 439,202.5C 442.833,205.352 447,206.852 451.5,207C 453.001,199.49 456.668,193.323 462.5,188.5C 471.811,191.663 481.144,194.83 490.5,198C 495.519,200.015 499.685,203.182 503,207.5C 506.667,213.167 510.333,218.833 514,224.5C 517.897,235.532 522.564,246.199 528,256.5C 533.468,271.096 533.801,285.763 529,300.5C 526.086,301.748 524.253,303.914 523.5,307C 523.759,308.261 524.426,309.261 525.5,310C 522.762,312.204 522.095,314.871 523.5,318C 521.493,326.208 519.326,334.374 517,342.5C 512.805,367.933 508.305,393.266 503.5,418.5C 501.801,418.34 500.134,418.506 498.5,419C 497.521,421.137 496.188,422.971 494.5,424.5C 489.912,424.112 485.246,424.112 480.5,424.5C 480.785,422.712 480.452,421.045 479.5,419.5C 472.767,428.791 471.767,427.791 476.5,416.5C 476.043,415.702 475.376,415.369 474.5,415.5 Z"/></g>
<g><path style="opacity:1" fill="#f4e7c5" d="M 666.5,190.5 C 669.313,189.235 671.313,190.235 672.5,193.5C 672.167,193.833 671.833,194.167 671.5,194.5C 669.814,193.143 668.148,191.81 666.5,190.5 Z"/></g>
<g><path style="opacity:1" fill="#f5eacb" d="M 108.5,185.5 C 109.124,185.917 109.457,186.584 109.5,187.5C 107.022,194.042 106.188,200.708 107,207.5C 100.915,217.338 94.582,227.004 88,236.5C 95.3392,219.804 102.173,202.804 108.5,185.5 Z"/></g>
<g><path style="opacity:1" fill="#c59d36" d="M 355.5,185.5 C 348.412,194.141 346.745,203.807 350.5,214.5C 349.16,215.688 348.493,217.188 348.5,219C 349.915,223.739 352.748,227.239 357,229.5C 357.754,234.017 358.588,238.517 359.5,243C 359.546,244.728 359.046,246.228 358,247.5C 355.597,245.738 353.097,245.405 350.5,246.5C 352.193,244.234 354.36,243.9 357,245.5C 357.374,244.584 357.874,243.75 358.5,243C 356.954,239.35 356.287,235.516 356.5,231.5C 355.178,231.67 354.011,231.337 353,230.5C 350.192,226.855 348.025,222.855 346.5,218.5C 346.939,216.896 347.606,215.396 348.5,214C 345.584,205.159 346.417,196.659 351,188.5C 352.129,186.859 353.629,185.859 355.5,185.5 Z"/></g>
<g><path style="opacity:1" fill="#f2e4be" d="M 108.5,218.5 C 109.525,218.897 109.692,219.563 109,220.5C 105.667,223.833 102.333,227.167 99,230.5C 98.3333,229.833 98.3333,229.167 99,228.5C 102.371,225.297 105.538,221.964 108.5,218.5 Z"/></g>
<g><path style="opacity:1" fill="#f2e4bf" d="M 721.5,228.5 C 722.462,236.046 722.128,243.712 720.5,251.5C 719.194,243.76 719.527,236.094 721.5,228.5 Z"/></g>
<g><path style="opacity:1" fill="#f5e9c9" d="M 60.5,265.5 C 60.3782,273.338 60.5448,281.338 61,289.5C 57.3816,299.305 54.3816,309.305 52,319.5C 53.7589,301.357 56.5922,283.357 60.5,265.5 Z"/></g>
<g><path style="opacity:1" fill="#cba747" d="M 350.5,246.5 C 350.132,250.316 348.465,253.316 345.5,255.5C 344.109,251.746 341.443,250.579 337.5,252C 333.844,254.59 329.844,256.59 325.5,258C 322.638,259.786 321.972,262.119 323.5,265C 322.207,265.49 320.873,265.657 319.5,265.5C 319.318,267.591 319.652,269.591 320.5,271.5C 320.192,272.308 319.692,272.975 319,273.5C 318.273,282.384 317.773,291.384 317.5,300.5C 316.566,301.568 316.232,302.901 316.5,304.5C 315.837,302.527 315.504,300.361 315.5,298C 316.078,290.172 316.578,282.338 317,274.5C 317.638,273.391 318.138,272.225 318.5,271C 317.713,268.901 317.38,266.734 317.5,264.5C 320.523,264.895 321.523,263.895 320.5,261.5C 323.362,257.233 327.362,254.733 332.5,254C 334.972,251.16 338.138,249.66 342,249.5C 343.987,250.154 345.32,251.487 346,253.5C 347.049,250.813 348.549,248.48 350.5,246.5 Z"/></g>
<g><path style="opacity:1" fill="#c39a30" d="M 467.5,688.5 C 468.167,688.5 468.5,688.833 468.5,689.5C 468.849,697.188 472.849,701.688 480.5,703C 492.973,704.518 501.807,699.685 507,688.5C 507.667,687.167 507.667,685.833 507,684.5C 499.592,691.621 490.758,694.955 480.5,694.5C 480.5,694.167 480.5,693.833 480.5,693.5C 491.828,693.585 500.994,689.251 508,680.5C 508.344,667.244 506.178,654.411 501.5,642C 502.317,639.209 503.317,636.542 504.5,634C 502.071,626.691 504.404,621.524 511.5,618.5C 512.265,616.705 512.932,614.872 513.5,613C 512.284,589.424 510.284,565.924 507.5,542.5C 507.765,537.941 508.432,533.441 509.5,529C 507.948,521.354 506.615,513.687 505.5,506C 506.301,495.792 507.468,485.625 509,475.5C 512.718,458.576 516.052,441.576 519,424.5C 521.126,408.841 521.459,393.174 520,377.5C 517.297,380.538 514.297,383.205 511,385.5C 509.959,396.333 507.959,407 505,417.5C 503.377,419.628 501.211,420.961 498.5,421.5C 497.96,422.748 497.293,423.915 496.5,425C 493.443,425.256 490.443,425.756 487.5,426.5C 484.118,425.754 480.785,425.421 477.5,425.5C 476.15,426.95 474.484,427.617 472.5,427.5C 472.318,425.409 472.652,423.409 473.5,421.5C 472.675,420.614 471.675,420.281 470.5,420.5C 474.401,411.245 477.234,401.578 479,391.5C 480.626,388.872 482.626,386.539 485,384.5C 495.22,365.301 498.554,344.968 495,323.5C 490.743,321.987 489.576,319.154 491.5,315C 488.588,311.646 488.921,308.646 492.5,306C 489.77,303.87 487.77,301.203 486.5,298C 487,297.5 487.5,297 488,296.5C 488.921,287.509 487.588,278.843 484,270.5C 481.467,266.797 480.134,262.797 480,258.5C 484.862,267.278 488.195,276.611 490,286.5C 491.008,290.771 490.508,294.771 488.5,298.5C 490.233,300.882 491.9,303.215 493.5,305.5C 493.124,307.383 492.124,308.883 490.5,310C 491.494,311.329 492.494,312.662 493.5,314C 492.507,316.453 492.34,318.953 493,321.5C 494.603,317.013 496.77,312.846 499.5,309C 503.232,307.068 506.899,307.068 510.5,309C 508.215,310.954 506.048,310.787 504,308.5C 499.459,310.211 496.792,313.544 496,318.5C 497.023,325.028 497.523,331.695 497.5,338.5C 497.959,358.897 492.125,377.23 480,393.5C 478.608,400.968 476.774,408.301 474.5,415.5C 475.376,415.369 476.043,415.702 476.5,416.5C 471.767,427.791 472.767,428.791 479.5,419.5C 480.452,421.045 480.785,422.712 480.5,424.5C 485.246,424.112 489.912,424.112 494.5,424.5C 496.188,422.971 497.521,421.137 498.5,419C 500.134,418.506 501.801,418.34 503.5,418.5C 508.305,393.266 512.805,367.933 517,342.5C 519.326,334.374 521.493,326.208 523.5,318C 522.095,314.871 522.762,312.204 525.5,310C 524.426,309.261 523.759,308.261 523.5,307C 524.253,303.914 526.086,301.748 529,300.5C 533.801,285.763 533.468,271.096 528,256.5C 522.564,246.199 517.897,235.532 514,224.5C 510.333,218.833 506.667,213.167 503,207.5C 499.685,203.182 495.519,200.015 490.5,198C 481.144,194.83 471.811,191.663 462.5,188.5C 456.668,193.323 453.001,199.49 451.5,207C 447,206.852 442.833,205.352 439,202.5C 437.287,203.878 435.953,205.545 435,207.5C 435.076,227.868 436.076,248.201 438,268.5C 445.483,310.362 452.15,352.362 458,394.5C 458.788,400.22 458.621,405.886 457.5,411.5C 458,411.833 458.5,412.167 459,412.5C 463.676,409.999 468.509,408.999 473.5,409.5C 468.277,410.902 463.11,412.569 458,414.5C 456.72,414.387 455.887,413.72 455.5,412.5C 456.626,406.218 456.793,399.885 456,393.5C 452.851,372.121 449.518,350.788 446,329.5C 437.221,338.279 428.387,347.113 419.5,356C 411.167,359 402.833,362 394.5,365C 392.979,368.644 392.145,372.477 392,376.5C 389.454,379.186 386.287,380.186 382.5,379.5C 382.842,378.662 383.508,378.328 384.5,378.5C 386.722,378.822 388.556,378.155 390,376.5C 390.774,372.853 391.441,369.186 392,365.5C 392.5,365 393,364.5 393.5,364C 402.211,360.654 410.878,357.321 419.5,354C 427.947,345.097 436.614,336.43 445.5,328C 443.447,327.675 441.447,328.009 439.5,329C 437.167,330.667 434.833,332.333 432.5,334C 431.365,334.749 430.365,334.583 429.5,333.5C 433.578,328.343 437.412,323.01 441,317.5C 442.301,315.635 442.635,313.635 442,311.5C 437.101,316.309 432.435,321.309 428,326.5C 431.567,318.853 435.067,311.02 438.5,303C 437.833,302.333 437.167,302.333 436.5,303C 432.126,308.911 428.126,315.078 424.5,321.5C 424.167,321.167 423.833,320.833 423.5,320.5C 427.04,313.919 430.707,307.419 434.5,301C 431.094,301.638 428.26,303.472 426,306.5C 423.294,312.078 420.461,317.578 417.5,323C 416.668,323.688 416.002,323.521 415.5,322.5C 417.199,319.232 418.365,315.899 419,312.5C 413.09,319.744 409.423,328.077 408,337.5C 407.167,339.667 405.667,341.167 403.5,342C 399.755,343.045 395.921,343.545 392,343.5C 384.291,342.823 376.624,341.823 369,340.5C 363.017,340.691 357.184,341.691 351.5,343.5C 350.304,343.154 350.304,342.654 351.5,342C 356.317,340.754 361.151,339.587 366,338.5C 366.945,338.095 367.612,337.428 368,336.5C 368.057,330.172 367.723,323.839 367,317.5C 365.189,312.602 364.189,307.602 364,302.5C 368.651,314.405 370.484,326.738 369.5,339.5C 377.554,339.977 385.554,340.977 393.5,342.5C 399.699,343.128 404.199,340.794 407,335.5C 408.319,325.532 412.319,316.865 419,309.5C 420.512,307.043 421.846,307.043 423,309.5C 425.306,304.694 428.806,301.027 433.5,298.5C 434.799,299.09 435.632,300.09 436,301.5C 437.011,300.663 438.178,300.33 439.5,300.5C 439.66,302.199 439.494,303.866 439,305.5C 437.317,309.168 435.984,312.835 435,316.5C 437.207,313.436 440.041,311.436 443.5,310.5C 441.005,295.847 438.505,281.181 436,266.5C 434.833,249.168 433.667,231.835 432.5,214.5C 432.507,211.408 433.007,208.408 434,205.5C 437.333,202.167 440.667,198.833 444,195.5C 446.602,190.094 448.436,184.427 449.5,178.5C 447.799,176.789 446.466,174.789 445.5,172.5C 444.604,173.506 443.938,173.506 443.5,172.5C 445.962,168.114 447.628,163.448 448.5,158.5C 449.814,157.687 450.981,156.687 452,155.5C 454.199,150.709 454.866,145.709 454,140.5C 450.35,137.568 449.35,133.902 451,129.5C 449.2,125.483 447.533,121.483 446,117.5C 441.547,114.714 437.38,111.548 433.5,108C 430.236,109.027 427.403,108.194 425,105.5C 420.253,106.043 415.587,107.043 411,108.5C 409.535,107.67 408.035,107.504 406.5,108C 404.257,110.467 401.59,112.3 398.5,113.5C 390.872,124.402 389.872,135.902 395.5,148C 395.167,149 394.833,150 394.5,151C 396.765,154.812 397.931,158.979 398,163.5C 399,164.167 400,164.833 401,165.5C 403.103,172.213 406.603,178.046 411.5,183C 417.721,188.26 424.221,188.76 431,184.5C 431.271,186.807 430.105,187.974 427.5,188C 424.443,188.256 421.443,188.756 418.5,189.5C 417.914,189.291 417.414,188.957 417,188.5C 416.862,192.567 414.862,195.234 411,196.5C 409.568,200.531 407.734,204.364 405.5,208C 406.418,212.758 407.751,217.424 409.5,222C 406.203,229.43 403.036,236.93 400,244.5C 398.383,254.548 399.883,264.048 404.5,273C 403.668,273.688 403.002,273.521 402.5,272.5C 394.709,255.945 396.209,240.278 407,225.5C 406.994,220.457 406.328,215.457 405,210.5C 403.506,213.64 402.006,216.806 400.5,220C 399.641,228.579 396.808,236.412 392,243.5C 380.152,255.355 370.485,254.021 363,239.5C 366.775,244.113 371.275,247.78 376.5,250.5C 382.434,249.784 387.267,247.117 391,242.5C 396.769,231.412 399.936,219.579 400.5,207C 399.672,200.85 397.839,195.016 395,189.5C 389.014,183.529 383.847,177.029 379.5,170C 366.828,166.654 359.495,171.321 357.5,184C 357.164,185.03 356.497,185.53 355.5,185.5C 357.87,168.978 366.87,163.812 382.5,170C 385.102,176.613 389.268,182.113 395,186.5C 398.317,192.117 400.65,198.117 402,204.5C 405.95,200.261 410.116,196.261 414.5,192.5C 415.631,190.926 415.798,189.259 415,187.5C 407.627,182.933 402.793,176.433 400.5,168C 398.646,166.477 397.146,164.644 396,162.5C 393.937,152.229 392.103,141.895 390.5,131.5C 390.561,128.097 391.061,124.764 392,121.5C 394.035,118.755 395.701,115.755 397,112.5C 400.046,111.035 402.879,109.201 405.5,107C 409.473,106.72 413.306,105.886 417,104.5C 422.959,104.156 428.793,104.99 434.5,107C 438.467,110.974 442.967,114.141 448,116.5C 449.667,120.833 451.333,125.167 453,129.5C 453.687,131.92 453.187,134.087 451.5,136C 454.504,138.328 455.837,141.495 455.5,145.5C 455.747,149.741 454.913,153.741 453,157.5C 451.915,158.293 450.748,158.96 449.5,159.5C 448.509,162.935 447.843,166.435 447.5,170C 447.42,174.086 449.42,175.919 453.5,175.5C 453.491,177.308 453.991,178.975 455,180.5C 458.202,182.398 461.035,184.731 463.5,187.5C 475.157,190.775 486.49,194.941 497.5,200C 503.848,206.536 509.348,213.703 514,221.5C 518.945,233.667 524.278,245.667 530,257.5C 534.271,271.734 534.604,286.067 531,300.5C 528.807,302.36 526.974,304.526 525.5,307C 525.833,308 526.167,309 526.5,310C 523.849,318.631 522.016,327.464 521,336.5C 520.376,341.223 520.71,345.89 522,350.5C 525.129,356.87 526.795,363.536 527,370.5C 525.167,372.333 523.333,374.167 521.5,376C 522.459,381.079 523.126,386.246 523.5,391.5C 521.858,419.21 517.692,446.543 511,473.5C 509.336,484.813 507.836,496.146 506.5,507.5C 508.323,514.457 509.989,521.457 511.5,528.5C 510.185,533.074 509.519,537.74 509.5,542.5C 510.431,547.695 510.431,552.862 509.5,558C 510.409,564.543 511.575,571.043 513,577.5C 513.61,582.851 513.443,588.184 512.5,593.5C 513.731,598.591 514.397,603.757 514.5,609C 514.691,612.698 514.024,616.198 512.5,619.5C 505.016,622.624 503.016,627.791 506.5,635C 504.751,637.086 503.417,639.419 502.5,642C 504.385,644.939 505.885,648.105 507,651.5C 510.209,663.733 510.876,676.066 509,688.5C 507.333,691.5 505.667,694.5 504,697.5C 494.674,704.867 484.508,706.367 473.5,702C 468.655,698.806 466.655,694.306 467.5,688.5 Z"/></g>
<g><path style="opacity:1" fill="#f9f2d9" d="M 403.5,204.5 C 404.239,204.369 404.906,204.536 405.5,205C 404.206,207.087 403.039,209.254 402,211.5C 401.185,208.802 401.685,206.468 403.5,204.5 Z"/></g>
<g><path style="opacity:1" fill="#f9f1d8" d="M 450.5,176.5 C 452.728,180.728 456.061,184.062 460.5,186.5C 458.527,189.64 456.36,192.64 454,195.5C 452.774,199.475 451.108,203.142 449,206.5C 446.091,204.962 443.258,203.296 440.5,201.5C 447.308,194.644 450.641,186.311 450.5,176.5 Z"/></g>
<g><path style="opacity:1" fill="#f2e4bf" d="M 723.5,279.5 C 727.166,285.665 729.333,292.331 730,299.5C 726.925,293.11 724.759,286.443 723.5,279.5 Z"/></g>
<g><path style="opacity:1" fill="#c59d37" d="M 390.5,262.5 C 395.676,270.882 401.176,279.215 407,287.5C 407.522,297.063 409.688,306.229 413.5,315C 413,315.5 412.5,316 412,316.5C 410.732,311.363 409.066,306.363 407,301.5C 406.005,296.547 405.338,291.547 405,286.5C 402.05,281.882 398.716,277.548 395,273.5C 393.487,269.812 391.987,266.145 390.5,262.5 Z"/></g>
<g><path style="opacity:1" fill="#f9f2d9" d="M 443.5,314.5 C 445.025,317.75 446.025,321.25 446.5,325C 442.205,325.898 438.372,327.731 435,330.5C 437.52,325.133 440.353,319.8 443.5,314.5 Z"/></g>
<g><path style="opacity:1" fill="#f9f1d9" d="M 518.5,342.5 C 519.727,349.331 521.893,355.998 525,362.5C 525.667,364.833 525.667,367.167 525,369.5C 520.824,373.875 516.658,378.209 512.5,382.5C 512.863,376 514.03,369.334 516,362.5C 517.09,355.858 517.923,349.192 518.5,342.5 Z"/></g>
<g><path style="opacity:1" fill="#d8bd72" d="M 324.5,342.5 C 325.492,342.328 326.158,342.662 326.5,343.5C 325.833,343.5 325.5,343.833 325.5,344.5C 325.795,346.735 325.461,348.735 324.5,350.5C 324.5,347.833 324.5,345.167 324.5,342.5 Z"/></g>
<g><path style="opacity:1" fill="#c2982e" d="M 325.5,344.5 C 325.5,343.833 325.833,343.5 326.5,343.5C 330.01,350.128 332.843,357.128 335,364.5C 338.15,368.617 341.65,372.451 345.5,376C 357.47,377.205 369.47,377.705 381.5,377.5C 374.018,378.492 366.352,378.825 358.5,378.5C 353.804,378.329 349.137,377.829 344.5,377C 339.644,372.807 335.477,367.974 332,362.5C 330.428,356.167 328.262,350.167 325.5,344.5 Z"/></g>
<g><path style="opacity:1" fill="#d4b664" d="M 381.5,377.5 C 382.791,377.263 383.791,377.596 384.5,378.5C 383.508,378.328 382.842,378.662 382.5,379.5C 374.316,379.826 366.316,379.492 358.5,378.5C 366.352,378.825 374.018,378.492 381.5,377.5 Z"/></g>
<g><path style="opacity:1" fill="#c39a31" d="M 425.5,428.5 C 425.815,432.371 425.482,436.038 424.5,439.5C 424.234,421.403 422.734,403.403 420,385.5C 419.973,381.959 418.806,378.959 416.5,376.5C 417.397,376.331 418.397,375.998 419.5,375.5C 417.947,370.577 417.114,365.577 417,360.5C 418.74,366.294 420.24,372.127 421.5,378C 429.833,379.902 438.167,379.735 446.5,377.5C 446.833,377.833 447.167,378.167 447.5,378.5C 439.014,381.46 430.348,382.127 421.5,380.5C 423.328,396.46 424.662,412.46 425.5,428.5 Z"/></g>
<g><path style="opacity:1" fill="#eaddb6" d="M 474.5,415.5 C 474.539,416.756 474.039,417.756 473,418.5C 472.415,417.002 472.915,416.002 474.5,415.5 Z"/></g>
<g><path style="opacity:1" fill="#f3e7c3" d="M 17.5,416.5 C 26.6025,426.704 33.1025,438.371 37,451.5C 29.9686,440.102 23.4686,428.435 17.5,416.5 Z"/></g>
<g><path style="opacity:1" fill="#ceab53" d="M 425.5,428.5 C 426.326,433.316 426.826,438.316 427,443.5C 429.714,444.996 432.547,445.996 435.5,446.5C 433.167,446.5 430.833,446.5 428.5,446.5C 425.41,445.335 424.076,443.002 424.5,439.5C 425.482,436.038 425.815,432.371 425.5,428.5 Z"/></g>
<g><path style="opacity:1" fill="#e7d39c" d="M 732.5,440.5 C 735.037,442.573 736.204,445.24 736,448.5C 734.546,445.929 733.38,443.262 732.5,440.5 Z"/></g>
<g><path style="opacity:1" fill="#e2cc8c" d="M 41.5,443.5 C 42.6341,445.966 42.8007,448.633 42,451.5C 41.4867,450.473 40.9867,449.473 40.5,448.5C 41.4511,447.081 41.7845,445.415 41.5,443.5 Z"/></g>
<g><path style="opacity:1" fill="#c2972b" d="M 445.5,428.5 C 449.826,431.406 453.326,435.072 456,439.5C 456.676,449.534 457.343,459.534 458,469.5C 456.104,460.273 455.104,450.94 455,441.5C 454.529,439.754 453.862,438.087 453,436.5C 449.595,434.598 447.095,431.931 445.5,428.5 Z"/></g>
<g><path style="opacity:1" fill="#e9d7a3" d="M 738.5,458.5 C 740.385,462.616 740.719,466.949 739.5,471.5C 738.508,467.217 738.174,462.884 738.5,458.5 Z"/></g>
<g><path style="opacity:1" fill="#e0c988" d="M 51.5,469.5 C 51.6277,475.453 50.961,475.787 49.5,470.5C 50.1667,470.167 50.8333,469.833 51.5,469.5 Z"/></g>
<g><path style="opacity:1" fill="#f5e9c8" d="M 741.5,489.5 C 740.532,487.393 740.198,485.059 740.5,482.5C 741.458,482.047 742.292,481.381 743,480.5C 743.167,480.833 743.333,481.167 743.5,481.5C 742.215,484.021 741.548,486.687 741.5,489.5 Z"/></g>
<g><path style="opacity:1" fill="#c39a31" d="M 317.5,300.5 C 317.474,310.204 319.308,319.537 323,328.5C 323.994,333.118 324.494,337.785 324.5,342.5C 324.5,345.167 324.5,347.833 324.5,350.5C 324.665,353.518 324.498,356.518 324,359.5C 318.929,371.853 315.762,384.686 314.5,398C 316.984,427.22 319.984,456.386 323.5,485.5C 321.945,492.439 321.445,499.439 322,506.5C 325.153,508.502 328.653,509.668 332.5,510C 335.186,512.546 336.186,515.713 335.5,519.5C 342.1,517.882 348.6,518.215 355,520.5C 358.109,519.029 361.276,517.695 364.5,516.5C 368.514,518.513 370.514,521.846 370.5,526.5C 373.64,524.527 376.64,522.36 379.5,520C 383.141,519.356 386.641,519.856 390,521.5C 393.367,520.867 396.533,519.7 399.5,518C 403.562,513.175 406.228,514.008 407.5,520.5C 406.121,521.863 406.287,522.863 408,523.5C 417.032,518.49 426.532,514.656 436.5,512C 447.312,504.464 459.312,499.964 472.5,498.5C 472.657,497.127 472.49,495.793 472,494.5C 466.809,485.637 460.476,477.637 453,470.5C 449.66,463.798 446.327,457.131 443,450.5C 438.261,448.403 433.428,447.069 428.5,446.5C 430.833,446.5 433.167,446.5 435.5,446.5C 438.674,446.664 441.507,447.664 444,449.5C 447.562,455.167 450.562,461.167 453,467.5C 458,473.167 463,478.833 468,484.5C 470.712,488.591 472.879,492.924 474.5,497.5C 474.182,498.647 473.516,499.481 472.5,500C 468.973,500.145 465.64,500.978 462.5,502.5C 461.231,509.939 461.731,517.272 464,524.5C 466.438,526.429 468.272,528.762 469.5,531.5C 465.685,541.275 465.685,551.109 469.5,561C 468.907,563.792 468.574,566.626 468.5,569.5C 469.341,577.541 470.508,585.541 472,593.5C 471.418,604.361 472.252,615.194 474.5,626C 473.614,628.808 473.447,631.641 474,634.5C 474.5,636.333 475.667,637.5 477.5,638C 484.957,638.379 492.291,638.545 499.5,638.5C 496.002,639.967 492.336,640.633 488.5,640.5C 484.156,640.214 479.823,639.88 475.5,639.5C 475.666,644.179 475.499,648.845 475,653.5C 474.392,655.066 473.558,656.4 472.5,657.5C 472.5,656.833 472.5,656.167 472.5,655.5C 474.901,650.605 475.068,645.605 473,640.5C 468.847,643.338 465.18,642.672 462,638.5C 460.634,636.63 459.467,634.63 458.5,632.5C 454.802,631.606 451.135,630.606 447.5,629.5C 442.843,634.99 437.676,639.99 432,644.5C 431.167,646.167 430.333,647.833 429.5,649.5C 431.396,650.466 433.396,650.799 435.5,650.5C 435.579,651.93 435.246,653.264 434.5,654.5C 430.639,659.081 426.639,663.581 422.5,668C 420.564,668.813 418.564,669.313 416.5,669.5C 416.247,671.827 416.914,673.827 418.5,675.5C 421.668,676.932 425.001,677.599 428.5,677.5C 437.626,676.552 446.292,674.385 454.5,671C 442.967,678.461 430.634,680.295 417.5,676.5C 416.416,675.335 415.583,674.002 415,672.5C 412.03,682.553 415.864,688.053 426.5,689C 438.334,689.916 447.334,685.249 453.5,675C 458.17,670.673 463.17,666.84 468.5,663.5C 468.5,664.167 468.5,664.833 468.5,665.5C 461.084,670.079 454.751,675.913 449.5,683C 439.93,691.023 429.263,692.69 417.5,688C 413.172,684.997 411.339,680.83 412,675.5C 405.986,677.373 399.819,677.873 393.5,677C 380.821,670.687 367.487,668.854 353.5,671.5C 346.017,673.11 341.683,670.276 340.5,663C 348.245,631.516 350.078,599.683 346,567.5C 345.73,564.638 344.896,561.972 343.5,559.5C 335.022,562.896 326.355,565.729 317.5,568C 310.833,571.667 304.167,575.333 297.5,579C 294.281,582.552 291.448,586.385 289,590.5C 286.572,593.598 283.572,595.931 280,597.5C 273.212,606.623 266.046,615.456 258.5,624C 252.944,625.778 249.11,623.945 247,618.5C 244.348,605.064 246.348,592.397 253,580.5C 255,578.5 257,576.5 259,574.5C 262.815,567.868 265.815,560.868 268,553.5C 270.634,547.728 274.134,542.561 278.5,538C 281.5,536 284.5,536 287.5,538C 290.034,540.984 292.201,544.151 294,547.5C 296.856,546.744 299.689,545.911 302.5,545C 313.541,538.479 323.875,530.979 333.5,522.5C 334.933,518.804 334.6,515.304 332.5,512C 328.605,510.991 324.772,509.825 321,508.5C 320.094,506.256 319.594,503.923 319.5,501.5C 320.439,496.032 321.106,490.532 321.5,485C 318.256,457.051 315.59,429.051 313.5,401C 313.596,386.924 316.429,373.424 322,360.5C 323.825,350.851 323.825,341.184 322,331.5C 318.693,322.797 316.859,313.797 316.5,304.5C 316.232,302.901 316.566,301.568 317.5,300.5 Z"/></g>
<g><path style="opacity:1" fill="#ddc47d" d="M 740.5,482.5 C 740.198,485.059 740.532,487.393 741.5,489.5C 740.91,490.766 740.41,492.099 740,493.5C 739.19,489.642 739.357,485.976 740.5,482.5 Z"/></g>
<g><path style="opacity:1" fill="#f9f1d9" d="M 457.5,503.5 C 458.5,503.5 459.5,503.5 460.5,503.5C 460.226,510.23 460.726,516.897 462,523.5C 463.849,526.538 465.682,529.538 467.5,532.5C 465.982,536.551 464.982,540.718 464.5,545C 465.69,550.453 466.69,555.953 467.5,561.5C 466.353,571.302 467.186,580.968 470,590.5C 470.235,597.862 470.735,605.195 471.5,612.5C 471.167,613.833 470.833,615.167 470.5,616.5C 472.402,620.616 472.735,624.783 471.5,629C 469.256,629.906 466.923,630.406 464.5,630.5C 459.256,630.04 454.09,629.374 449,628.5C 447.251,616.843 445.585,605.176 444,593.5C 439.438,583.037 436.771,572.037 436,560.5C 432.74,553.544 430.74,546.211 430,538.5C 425.739,535.913 421.739,532.913 418,529.5C 417.179,526.446 417.345,523.446 418.5,520.5C 423.585,518.36 428.585,516.027 433.5,513.5C 434.167,513.833 434.833,514.167 435.5,514.5C 442.143,509.296 449.477,505.629 457.5,503.5 Z"/></g>
<g><path style="opacity:1" fill="#f5eaca" d="M 757.5,514.5 C 758.675,514.281 759.675,514.614 760.5,515.5C 757.695,520.752 753.695,524.919 748.5,528C 744,533.167 739.5,538.333 735,543.5C 734.333,542.833 734.333,542.167 735,541.5C 740.075,535.687 744.408,529.354 748,522.5C 750.772,519.217 753.939,516.55 757.5,514.5 Z"/></g>
<g><path style="opacity:1" fill="#f9f1d9" d="M 402.5,516.5 C 405.164,518.166 405.83,520.499 404.5,523.5C 405.869,525.124 407.536,525.624 409.5,525C 411.746,523.961 413.913,522.794 416,521.5C 416.664,527.048 415.164,531.882 411.5,536C 407.323,538.059 402.99,539.726 398.5,541C 376.898,545.627 355.898,552.293 335.5,561C 321.422,564.206 308.422,569.873 296.5,578C 292.727,581.718 289.56,585.884 287,590.5C 283.667,593.167 280.333,595.833 277,598.5C 271.283,605.216 265.95,612.216 261,619.5C 255.313,625.179 250.98,624.179 248,616.5C 246.608,605.49 247.942,594.823 252,584.5C 261.25,574.006 267.917,562.006 272,548.5C 274.139,545.061 276.639,541.894 279.5,539C 286.953,537.613 290.62,540.78 290.5,548.5C 295.836,548.749 300.836,547.582 305.5,545C 315.549,538.973 324.882,531.973 333.5,524C 338.696,520.039 344.363,519.039 350.5,521C 350.998,522.158 351.831,522.991 353,523.5C 356.667,521.833 360.333,520.167 364,518.5C 365.261,518.759 366.261,519.426 367,520.5C 366.954,523.633 367.954,526.3 370,528.5C 373.441,526.724 376.608,524.557 379.5,522C 383.186,521.193 386.686,521.693 390,523.5C 395.165,522.742 399.332,520.408 402.5,516.5 Z"/></g>
<g><path style="opacity:1" fill="#f9f1d9" d="M 416.5,531.5 C 420.06,534.201 423.894,536.534 428,538.5C 428.868,545.853 430.868,552.853 434,559.5C 435.259,565.793 436.259,572.127 437,578.5C 439.54,584.859 441.707,591.359 443.5,598C 443.006,599.462 442.673,600.962 442.5,602.5C 444.938,610.167 446.604,618 447.5,626C 442.708,633.126 436.875,639.293 430,644.5C 428.798,646.677 428.298,649.011 428.5,651.5C 430.288,651.215 431.955,651.548 433.5,652.5C 433.333,652.833 433.167,653.167 433,653.5C 429.631,657.885 426.131,662.052 422.5,666C 420.975,667.009 419.308,667.509 417.5,667.5C 416.072,663.501 413.739,660.001 410.5,657C 402.5,653.333 394.5,649.667 386.5,646C 383.826,642.988 380.493,641.322 376.5,641C 374.962,638.072 374.296,634.906 374.5,631.5C 378.456,604.762 382.956,578.095 388,551.5C 389.001,548.827 390.501,546.493 392.5,544.5C 398.923,542.637 405.256,540.47 411.5,538C 413.79,536.223 415.457,534.056 416.5,531.5 Z"/></g>
<g><path style="opacity:1" fill="#f7eed2" d="M 38.5,537.5 C 49.0301,545.361 59.5301,553.361 70,561.5C 78.3299,572.152 85.6632,583.486 92,595.5C 96.9451,598.445 101.278,602.112 105,606.5C 105.667,607.167 105.667,607.833 105,608.5C 87.4668,594.974 71.1335,579.974 56,563.5C 52.9188,557.669 49.5855,552.002 46,546.5C 42.8883,543.899 40.3883,540.899 38.5,537.5 Z"/></g>
<g><path style="opacity:1" fill="#f9f1d9" d="M 385.5,544.5 C 386.978,544.238 388.311,544.571 389.5,545.5C 387.855,547.925 386.689,550.592 386,553.5C 382.441,573.187 378.774,592.853 375,612.5C 373.552,621.301 372.719,629.968 372.5,638.5C 384.292,646.569 396.959,653.403 410.5,659C 412.5,661.667 414.5,664.333 416.5,667C 415.599,669.571 414.266,671.904 412.5,674C 407.511,674.915 402.511,675.748 397.5,676.5C 389.549,672.907 381.216,670.407 372.5,669C 364.466,668.968 356.466,669.301 348.5,670C 343.849,669.346 341.849,666.679 342.5,662C 345.065,650.239 347.232,638.406 349,626.5C 349.667,610.5 349.667,594.5 349,578.5C 348.478,572.035 347.312,565.701 345.5,559.5C 358.79,554.074 372.123,549.074 385.5,544.5 Z"/></g>
<g><path style="opacity:1" fill="#f3e5c1" d="M 703.5,579.5 C 704.043,579.56 704.376,579.893 704.5,580.5C 699.912,587.922 694.745,594.922 689,601.5C 691.917,593.049 696.751,585.716 703.5,579.5 Z"/></g>
<g><path style="opacity:1" fill="#f9f1d9" d="M 472.5,655.5 C 471.186,658.128 469.853,660.795 468.5,663.5C 463.17,666.84 458.17,670.673 453.5,675C 447.334,685.249 438.334,689.916 426.5,689C 415.864,688.053 412.03,682.553 415,672.5C 415.583,674.002 416.416,675.335 417.5,676.5C 430.634,680.295 442.967,678.461 454.5,671C 446.292,674.385 437.626,676.552 428.5,677.5C 425.001,677.599 421.668,676.932 418.5,675.5C 416.914,673.827 416.247,671.827 416.5,669.5C 418.564,669.313 420.564,668.813 422.5,668C 426.639,663.581 430.639,659.081 434.5,654.5C 435.246,653.264 435.579,651.93 435.5,650.5C 433.396,650.799 431.396,650.466 429.5,649.5C 430.333,647.833 431.167,646.167 432,644.5C 437.676,639.99 442.843,634.99 447.5,629.5C 451.135,630.606 454.802,631.606 458.5,632.5C 459.467,634.63 460.634,636.63 462,638.5C 465.18,642.672 468.847,643.338 473,640.5C 475.068,645.605 474.901,650.605 472.5,655.5 Z"/></g>
<g><path style="opacity:1" fill="#f9f0d6" d="M 464.5,631.5 C 472.474,630.952 474.474,634.119 470.5,641C 465.694,640.721 462.361,638.221 460.5,633.5C 461.949,632.828 463.282,632.161 464.5,631.5 Z"/></g>
<g><path style="opacity:1" fill="#f5eacb" d="M 665.5,665.5 C 668.518,665.335 671.518,665.502 674.5,666C 668.821,668.921 662.821,670.254 656.5,670C 659.592,668.454 662.592,666.954 665.5,665.5 Z"/></g>
<g><path style="opacity:1" fill="#f4e8c5" d="M 649.5,653.5 C 650.043,653.56 650.376,653.893 650.5,654.5C 646.233,661.601 640.733,667.601 634,672.5C 633.5,672 633,671.5 632.5,671C 639.041,665.96 644.708,660.126 649.5,653.5 Z"/></g>
<g><path style="opacity:1" fill="#e4ce92" d="M 135.5,670.5 C 138.82,669.642 142.153,670.142 145.5,672C 142.122,672.048 138.789,671.548 135.5,670.5 Z"/></g>
<g><path style="opacity:1" fill="#f4e8c6" d="M 628.5,676.5 C 629.835,679.994 628.501,681.16 624.5,680C 626.093,679.051 627.426,677.885 628.5,676.5 Z"/></g>
<g><path style="opacity:1" fill="#cdab4f" d="M 472.5,655.5 C 472.5,656.167 472.5,656.833 472.5,657.5C 471.906,659.855 470.906,662.022 469.5,664C 470.959,666.981 471.626,670.148 471.5,673.5C 469.029,682.679 472.029,689.346 480.5,693.5C 480.5,693.833 480.5,694.167 480.5,694.5C 475.32,693.488 471.82,690.488 470,685.5C 469.79,687.058 469.29,688.391 468.5,689.5C 468.5,688.833 468.167,688.5 467.5,688.5C 468.858,682.564 469.858,676.564 470.5,670.5C 469.826,668.805 469.159,667.138 468.5,665.5C 468.5,664.833 468.5,664.167 468.5,663.5C 469.853,660.795 471.186,658.128 472.5,655.5 Z"/></g>
<g><path style="opacity:1" fill="#f9f1d8" d="M 468.5,689.5 C 469.29,688.391 469.79,687.058 470,685.5C 471.82,690.488 475.32,693.488 480.5,694.5C 490.758,694.955 499.592,691.621 507,684.5C 507.667,685.833 507.667,687.167 507,688.5C 501.807,699.685 492.973,704.518 480.5,703C 472.849,701.688 468.849,697.188 468.5,689.5 Z"/></g>
<g><path style="opacity:1" fill="#f4e7c4" d="M 598.5,679.5 C 599.043,679.56 599.376,679.893 599.5,680.5C 597.484,684.531 595.484,688.531 593.5,692.5C 588.478,696.499 583.144,699.665 577.5,702C 585.75,695.586 592.75,688.086 598.5,679.5 Z"/></g>
<g><path style="opacity:1" fill="#bc8f18" d="M 439.5,713.5 C 443.07,713.901 445.236,715.901 446,719.5C 447.214,727.288 446.381,734.788 443.5,742C 447.241,743.738 450.408,746.238 453,749.5C 454.29,755.772 455.29,762.105 456,768.5C 456.739,770.221 457.573,771.887 458.5,773.5C 464.407,765.365 469.574,756.698 474,747.5C 474.414,747.043 474.914,746.709 475.5,746.5C 476.665,749.535 476.498,752.535 475,755.5C 471.415,761.002 468.081,766.669 465,772.5C 460.788,780.405 456.788,780.405 453,772.5C 451.535,765.155 450.202,757.821 449,750.5C 446.047,746.827 442.714,746.16 439,748.5C 439.03,759.757 437.696,770.757 435,781.5C 433.904,779.541 433.404,777.375 433.5,775C 434.254,768.186 434.588,761.353 434.5,754.5C 433.5,754.5 432.5,754.5 431.5,754.5C 432.012,750.642 432.678,746.809 433.5,743C 432.511,735.85 432.344,728.683 433,721.5C 434.305,718.039 436.471,715.372 439.5,713.5 Z"/></g>
<g><path style="opacity:1" fill="#ecdbac" d="M 239.5,711.5 C 244.299,713.733 248.965,716.233 253.5,719C 251.711,719.52 250.044,719.187 248.5,718C 245.995,716.247 243.329,714.747 240.5,713.5C 239.702,713.043 239.369,712.376 239.5,711.5 Z"/></g>
<g><path style="opacity:1" fill="#f6ebcd" d="M 439.5,717.5 C 440.75,717.577 441.583,718.244 442,719.5C 444.292,727.165 443.459,734.498 439.5,741.5C 438.675,742.386 437.675,742.719 436.5,742.5C 435.866,736.504 435.7,730.504 436,724.5C 436.653,721.861 437.82,719.527 439.5,717.5 Z"/></g>
<g><path style="opacity:1" fill="#bd8f1a" d="M 376.5,720.5 C 378.635,720.147 379.968,720.98 380.5,723C 373.681,742.057 371.514,761.557 374,781.5C 377.129,776.074 380.629,770.907 384.5,766C 387.649,763.753 388.816,764.586 388,768.5C 383.797,773.738 379.964,779.238 376.5,785C 372.276,786.45 369.776,784.95 369,780.5C 368.833,776.5 368.667,772.5 368.5,768.5C 368.69,757.656 369.857,746.989 372,736.5C 367.907,745.852 364.574,755.519 362,765.5C 359.211,768.129 357.211,767.462 356,763.5C 354.147,757.737 352.147,752.071 350,746.5C 348.88,760.567 346.046,774.233 341.5,787.5C 341.167,786.667 340.833,785.833 340.5,785C 344.025,765.966 346.525,746.8 348,727.5C 349,726.167 350,726.167 351,727.5C 352.707,738.751 355.374,749.751 359,760.5C 362.414,746.015 368.247,732.682 376.5,720.5 Z"/></g>
<g><path style="opacity:1" fill="#bc8e17" d="M 405.5,746.5 C 413.562,745.923 416.396,749.59 414,757.5C 412.878,759.624 411.378,761.457 409.5,763C 410.729,764.529 412.229,765.696 414,766.5C 415.444,764.845 417.278,764.178 419.5,764.5C 419.617,766.484 418.95,768.15 417.5,769.5C 419.543,770.579 420.876,772.246 421.5,774.5C 420.635,775.583 419.635,775.749 418.5,775C 417.271,773.471 415.771,772.304 414,771.5C 410.833,775.333 407.667,779.167 404.5,783C 402.559,783.743 400.726,783.576 399,782.5C 397.169,774.668 399.003,767.834 404.5,762C 401.639,756.593 401.972,751.427 405.5,746.5 Z"/></g>
<g><path style="opacity:1" fill="#f7edd1" d="M 407.5,750.5 C 408.5,750.5 409.5,750.5 410.5,750.5C 411.036,753.665 410.203,756.331 408,758.5C 406.188,755.954 406.022,753.288 407.5,750.5 Z"/></g>
<g><path style="opacity:1" fill="#f6eccf" d="M 405.5,766.5 C 407.423,766.795 409.09,767.628 410.5,769C 408,772.167 405.5,775.333 403,778.5C 402.333,776.5 402.333,774.5 403,772.5C 404.122,770.593 404.955,768.593 405.5,766.5 Z"/></g>
</svg>
