
<!DOCTYPE svg PUBLIC "-//W3C//DTD SVG 1.1//EN" "http://www.w3.org/Graphics/SVG/1.1/DTD/svg11.dtd">
<svg xmlns="http://www.w3.org/2000/svg" version="1.1" width="800px" height="800px" style="shape-rendering:geometricPrecision; text-rendering:geometricPrecision; image-rendering:optimizeQuality; fill-rule:evenodd; clip-rule:evenodd" xmlns:xlink="http://www.w3.org/1999/xlink">
<g><path style="opacity:0.817" fill="#000000" d="M 184.5,59.5 C 187.596,58.9066 189.929,59.9066 191.5,62.5C 184.723,78.3866 178.223,94.3866 172,110.5C 170.954,112.09 169.787,113.59 168.5,115C 161.753,118.455 155.253,122.289 149,126.5C 143.253,133.654 138.253,141.321 134,149.5C 126.733,157.431 120.233,165.931 114.5,175C 116.235,175.651 117.902,175.485 119.5,174.5C 120.902,174.865 121.902,175.699 122.5,177C 116.952,188.549 108.619,197.549 97.5,204C 94.2959,206.869 91.4626,210.035 89,213.5C 78.678,233.477 70.0113,254.143 63,275.5C 60.2166,286.08 58.2166,296.747 57,307.5C 57.9692,303.854 59.9692,301.854 63,301.5C 64.8712,296.919 67.3712,292.752 70.5,289C 72.6073,288.146 73.9407,288.812 74.5,291C 53.9013,326.896 46.068,365.396 51,406.5C 51.5727,416.27 52.906,425.936 55,435.5C 57.2608,419.091 60.4275,402.924 64.5,387C 65.7839,386.316 66.9505,386.483 68,387.5C 65.3491,402.764 62.6825,418.097 60,433.5C 59.1363,444.657 60.1363,455.657 63,466.5C 66.4884,477.454 69.8218,488.454 73,499.5C 78.274,510.381 83.274,521.381 88,532.5C 97.3333,545.167 106.667,557.833 116,570.5C 111.758,557.939 107.591,545.272 103.5,532.5C 105.722,532.178 107.556,532.845 109,534.5C 113.262,544.953 116.929,555.62 120,566.5C 122.161,571.492 124.828,576.159 128,580.5C 135.047,588.545 141.713,596.878 148,605.5C 164.832,623.351 183.665,638.517 204.5,651C 209.936,654.228 215.602,656.562 221.5,658C 208.036,648.932 200.036,636.599 197.5,621C 198.5,620.333 199.5,620.333 200.5,621C 207.789,633.3 216.956,644.133 228,653.5C 231.167,658 234.333,662.5 237.5,667C 248.163,671.994 258.163,677.994 267.5,685C 281.328,692.052 295.328,698.719 309.5,705C 310.337,706.011 310.67,707.178 310.5,708.5C 303.923,708.07 297.59,706.57 291.5,704C 279.043,699.271 266.71,694.271 254.5,689C 235.002,676.416 215.335,664.083 195.5,652C 191.174,652.093 186.841,652.093 182.5,652C 177.833,649.667 173.167,647.333 168.5,645C 156.358,642.172 144.358,638.838 132.5,635C 130.773,633.611 129.439,631.944 128.5,630C 128.734,628.268 129.734,627.434 131.5,627.5C 136.146,628.441 140.813,629.274 145.5,630C 155.736,633.969 166.069,637.302 176.5,640C 152.532,618.367 128.866,596.367 105.5,574C 100.167,570 94.8333,566 89.5,562C 78.6667,551.167 67.8333,540.333 57,529.5C 52.4799,519.788 46.4799,511.121 39,503.5C 34.9586,493.813 37.4586,491.98 46.5,498C 55.377,506.192 64.7103,513.025 74.5,518.5C 68.9392,509.376 64.4392,499.709 61,489.5C 55.8952,472.081 51.8952,454.414 49,436.5C 35.1526,414.146 22.3193,391.146 10.5,367.5C 11.3482,365.717 12.6815,365.217 14.5,366C 17.6301,368.128 20.4634,370.628 23,373.5C 32.1093,384.709 39.4426,397.042 45,410.5C 44.6451,388.611 44.4784,366.778 44.5,345C 46.9088,326.796 50.2421,308.796 54.5,291C 53.376,290.751 52.376,290.251 51.5,289.5C 54.062,265.518 57.7287,241.685 62.5,218C 61.3907,212.858 60.8907,207.692 61,202.5C 64.7016,199.527 67.0349,200.527 68,205.5C 68.4993,209.016 68.3326,212.516 67.5,216C 68.8767,223.773 69.7101,231.606 70,239.5C 82.0931,209.974 94.7597,180.641 108,151.5C 112.934,138.364 117.268,125.031 121,111.5C 122.356,110.62 123.856,110.286 125.5,110.5C 122.926,125.528 120.426,140.528 118,155.5C 121.76,150.317 125.76,145.317 130,140.5C 138.744,122.677 147.744,105.011 157,87.5C 158.813,82.2451 160.313,76.9118 161.5,71.5C 163.045,70.5481 164.712,70.2148 166.5,70.5C 166.25,81.7457 164.75,92.7457 162,103.5C 165.507,98.4905 168.507,93.1572 171,87.5C 173.746,78.9276 177.079,70.5943 181,62.5C 182.145,61.3636 183.312,60.3636 184.5,59.5 Z M 155.5,102.5 C 155.843,110.867 152.51,117.2 145.5,121.5C 148.582,115.001 151.915,108.668 155.5,102.5 Z M 166.5,108.5 C 166.461,107.244 166.961,106.244 168,105.5C 168.585,106.998 168.085,107.998 166.5,108.5 Z M 95.5,193.5 C 100.924,181.648 106.09,169.648 111,157.5C 111.313,160.595 110.813,163.595 109.5,166.5C 110.167,167.5 110.833,168.5 111.5,169.5C 106.639,177.91 101.306,185.91 95.5,193.5 Z M 58.5,270.5 C 59.5743,259.054 61.4077,247.72 64,236.5C 64.8523,241.826 65.1857,247.16 65,252.5C 63.0986,258.713 60.932,264.713 58.5,270.5 Z M 28.5,390.5 C 32.1745,394.507 34.8412,399.173 36.5,404.5C 33.331,400.167 30.6643,395.5 28.5,390.5 Z M 45.5,503.5 C 52.0848,509.136 59.0848,514.303 66.5,519C 78.9846,531.643 89.3179,545.81 97.5,561.5C 85.8901,551.061 74.3901,540.394 63,529.5C 57.7285,520.406 51.8951,511.739 45.5,503.5 Z M 98.5,562.5 C 100.027,562.427 101.027,563.094 101.5,564.5C 99.9731,564.573 98.9731,563.906 98.5,562.5 Z M 101.5,564.5 C 103.795,565.136 105.461,566.469 106.5,568.5C 104.251,567.92 102.585,566.587 101.5,564.5 Z"/></g>
<g><path style="opacity:0.823" fill="#000000" d="M 640.5,61.5 C 643.425,61.4598 646.091,62.2932 648.5,64C 653.614,67.6355 658.781,71.1355 664,74.5C 665.333,73.1667 666.667,73.1667 668,74.5C 666.757,90.7925 666.424,107.126 667,123.5C 669.157,113.872 671.157,104.206 673,94.5C 674.333,93.1667 675.667,93.1667 677,94.5C 677.667,99.5 677.667,104.5 677,109.5C 673.058,121.774 672.725,134.107 676,146.5C 680.584,153.332 684.917,160.332 689,167.5C 695.74,173.57 701.74,180.237 707,187.5C 710.473,195.779 714.473,203.779 719,211.5C 719.071,201.737 721.071,192.403 725,183.5C 726.819,179.71 728.819,179.71 731,183.5C 730.875,199.201 730.208,214.868 729,230.5C 731.47,237.578 734.137,244.578 737,251.5C 741.08,273.152 746.413,294.485 753,315.5C 757.404,332.259 760.404,349.259 762,366.5C 768.441,354.505 774.108,342.171 779,329.5C 780.5,327.333 782,325.167 783.5,323C 784.793,322.51 786.127,322.343 787.5,322.5C 787.663,324.857 787.497,327.19 787,329.5C 785,334.167 783,338.833 781,343.5C 774.398,355.039 768.065,366.705 762,378.5C 759.895,401.007 756.561,423.34 752,445.5C 746.676,463.468 742.009,481.468 738,499.5C 742.58,493.34 746.914,487.007 751,480.5C 755.806,475.577 761.472,473.577 768,474.5C 769.602,477.425 769.602,480.425 768,483.5C 752.665,500.002 736.832,516.002 720.5,531.5C 712.283,549.554 700.783,565.221 686,578.5C 680.817,586.195 675.151,593.528 669,600.5C 664.085,612.06 657.585,622.56 649.5,632C 656.505,630.014 663.505,627.68 670.5,625C 675.357,624.693 680.19,624.193 685,623.5C 688.499,623.515 689.833,625.182 689,628.5C 680.183,635.773 670.017,639.273 658.5,639C 650.529,641.213 642.862,644.213 635.5,648C 623.659,647.758 613.992,652.092 606.5,661C 602.071,661.681 597.737,662.681 593.5,664C 575.868,673.816 558.535,684.15 541.5,695C 529.116,700.71 516.116,703.543 502.5,703.5C 502.33,702.178 502.663,701.011 503.5,700C 515.495,698.559 526.495,694.559 536.5,688C 548.67,683.915 560.003,678.248 570.5,671C 580.333,662.5 589.5,653.333 598,643.5C 599.92,640.661 601.587,637.661 603,634.5C 603.881,629.719 605.381,625.219 607.5,621C 609.367,620.289 610.867,620.789 612,622.5C 612.704,624.278 613.204,626.112 613.5,628C 611.092,636.225 608.092,644.225 604.5,652C 615.721,647.489 625.388,640.489 633.5,631C 639.258,627.246 644.425,622.746 649,617.5C 653.95,610.216 659.283,603.216 665,596.5C 674.423,575.892 679.59,554.225 680.5,531.5C 681.5,530.167 682.5,530.167 683.5,531.5C 684.586,544.194 684.752,556.86 684,569.5C 688.503,563.165 692.503,556.498 696,549.5C 733.602,514.021 747.602,470.688 738,419.5C 735.208,412.253 732.708,404.92 730.5,397.5C 730.747,394.918 732.08,394.085 734.5,395C 738.755,398.266 741.922,402.432 744,407.5C 745.491,413.13 746.824,418.797 748,424.5C 749.055,414.84 750.055,405.173 751,395.5C 751.867,390.232 753.534,385.232 756,380.5C 756.123,363.686 754.456,347.019 751,330.5C 750.121,325.864 748.455,321.531 746,317.5C 735.519,308.262 724.852,299.262 714,290.5C 713.116,288.359 713.616,286.693 715.5,285.5C 717.167,286.333 718.833,287.167 720.5,288C 726.54,293.709 732.874,299.043 739.5,304C 740.332,304.688 740.998,304.521 741.5,303.5C 740.05,298.958 739.217,294.292 739,289.5C 733.8,275.565 728.8,261.565 724,247.5C 723.667,241.833 723.333,236.167 723,230.5C 722.057,227.6 720.39,225.267 718,223.5C 716.721,218.275 714.388,213.609 711,209.5C 701.74,199.991 694.74,188.991 690,176.5C 679.603,165.773 667.769,156.94 654.5,150C 652.845,148.556 652.178,146.722 652.5,144.5C 657.861,143.866 662.861,144.866 667.5,147.5C 667.833,147.167 668.167,146.833 668.5,146.5C 662.351,133.545 658.518,119.878 657,105.5C 656.812,97.7821 656.146,90.1154 655,82.5C 651.467,75.9603 646.8,70.2937 641,65.5C 640.51,64.2068 640.343,62.8734 640.5,61.5 Z M 660.5,84.5 C 659.165,81.6587 658.332,78.6587 658,75.5C 660.251,78.0172 661.084,81.0172 660.5,84.5 Z M 660.5,84.5 C 661.88,84.9623 662.547,85.9623 662.5,87.5C 661.79,91.8035 661.29,96.1368 661,100.5C 660.501,95.1771 660.334,89.8437 660.5,84.5 Z M 674.5,155.5 C 673.527,155.013 672.527,154.513 671.5,154C 673.157,153.275 674.157,153.775 674.5,155.5 Z M 725.5,194.5 C 726.16,195.964 726.493,197.631 726.5,199.5C 726.037,204.171 725.537,208.837 725,213.5C 724.406,207.144 724.573,200.811 725.5,194.5 Z M 744.5,446.5 C 745.497,446.47 746.164,446.97 746.5,448C 745.922,449.811 745.422,451.645 745,453.5C 744.503,451.19 744.337,448.857 744.5,446.5 Z M 746.5,497.5 C 749.06,492.723 751.893,488.056 755,483.5C 757.812,481.008 760.978,479.508 764.5,479C 763.54,480.419 762.707,481.919 762,483.5C 756.638,488.032 751.472,492.699 746.5,497.5 Z M 705.5,547.5 C 703.262,552.071 700.262,556.071 696.5,559.5C 698.043,554.418 701.043,550.418 705.5,547.5 Z M 670.5,629.5 C 672.527,629.338 674.527,629.505 676.5,630C 672.46,632.427 668.127,633.427 663.5,633C 665.925,631.787 668.259,630.621 670.5,629.5 Z M 641.5,632.5 C 640.998,634.085 639.998,634.585 638.5,634C 639.244,632.961 640.244,632.461 641.5,632.5 Z M 631.5,641.5 C 632.376,641.369 633.043,641.702 633.5,642.5C 631.192,643.873 630.525,643.54 631.5,641.5 Z M 600.5,648.5 C 598.221,655.445 593.555,660.112 586.5,662.5C 591.5,658.167 596.167,653.5 600.5,648.5 Z"/></g>
<g><path style="opacity:0.523" fill="#000000" d="M 414.5,62.5 C 416.436,63.259 418.269,64.259 420,65.5C 423.899,64.1739 426.732,65.5073 428.5,69.5C 431.265,71.6006 434.265,73.2673 437.5,74.5C 439.171,76.5098 439.838,78.8431 439.5,81.5C 440.5,81.5 441.5,81.5 442.5,81.5C 442.36,85.1642 443.027,88.6642 444.5,92C 444.561,93.7106 443.894,95.044 442.5,96C 445.988,97.2324 447.655,99.7324 447.5,103.5C 446.99,107.905 446.157,112.238 445,116.5C 439.641,120.747 437.641,126.414 439,133.5C 443.296,133.795 445.629,136.129 446,140.5C 449.38,141.871 452.213,144.038 454.5,147C 465.334,150.046 476.001,153.712 486.5,158C 489.965,160.463 493.131,163.296 496,166.5C 500.732,173.573 505.065,180.906 509,188.5C 512.8,198.764 517.134,208.764 522,218.5C 526.828,233.593 526.661,248.593 521.5,263.5C 517.129,265.03 516.129,267.53 518.5,271C 518.241,272.261 517.574,273.261 516.5,274C 517.081,274.893 517.415,275.893 517.5,277C 513.1,288.551 511.934,300.384 514,312.5C 516.336,318.007 518.169,323.674 519.5,329.5C 519.429,332.74 517.929,335.073 515,336.5C 515.968,370.064 511.968,403.064 503,435.5C 501.282,447.142 499.782,458.809 498.5,470.5C 500.379,477.466 502.046,484.466 503.5,491.5C 502.787,493.776 502.287,496.109 502,498.5C 501.864,506.223 501.698,513.89 501.5,521.5C 502.01,526.551 502.843,531.551 504,536.5C 504.117,548.902 504.951,561.235 506.5,573.5C 506.793,577.45 505.96,581.116 504,584.5C 496.55,587.406 494.716,592.406 498.5,599.5C 496.808,601.205 495.475,603.205 494.5,605.5C 496.298,609.395 497.798,613.395 499,617.5C 499.891,624.515 500.891,631.515 502,638.5C 502.799,660.368 492.299,670.868 470.5,670C 465.24,668.735 461.073,665.901 458,661.5C 457.677,653.786 458.177,646.12 459.5,638.5C 459.167,635.833 458.833,633.167 458.5,630.5C 455.5,632.667 452.5,634.833 449.5,637C 444.022,644.814 437.022,650.814 428.5,655C 423.167,655.667 417.833,655.667 412.5,655C 405.21,652.926 401.377,648.093 401,640.5C 397.485,641.802 393.818,642.469 390,642.5C 382.165,640.509 374.332,638.343 366.5,636C 357.617,635.432 348.784,635.932 340,637.5C 332.568,637.401 329.068,633.734 329.5,626.5C 330.537,617.348 332.371,608.348 335,599.5C 337.445,574.412 336.945,549.412 333.5,524.5C 316.667,528.167 301,534.667 286.5,544C 283.359,548.641 280.026,553.141 276.5,557.5C 272.558,559.938 269.058,562.938 266,566.5C 263.084,571.42 259.418,575.753 255,579.5C 252.835,586.828 248.001,589.995 240.5,589C 235.661,584.834 233.328,579.5 233.5,573C 233.902,564.952 235.402,557.119 238,549.5C 240.243,545.252 243.243,541.586 247,538.5C 251.829,529.843 255.829,520.843 259,511.5C 261.412,507.084 264.578,503.251 268.5,500C 271.634,499.21 274.634,499.543 277.5,501C 279.652,504.151 281.652,507.318 283.5,510.5C 286.839,509.332 290.172,508.166 293.5,507C 304.207,500.462 314.207,492.962 323.5,484.5C 322.833,481.5 322.167,478.5 321.5,475.5C 317.781,474.487 314.114,473.32 310.5,472C 307.013,467.212 306.513,462.045 309,456.5C 309.667,449.5 309.667,442.5 309,435.5C 305.749,411.24 303.249,386.906 301.5,362.5C 301.982,347.572 305.149,333.239 311,319.5C 312.577,309.829 312.244,300.162 310,290.5C 307.87,284.981 306.203,279.314 305,273.5C 304.417,260.482 304.751,247.482 306,234.5C 306.374,233.584 306.874,232.75 307.5,232C 305.476,228.016 306.476,225.35 310.5,224C 309.124,221.46 309.79,219.46 312.5,218C 319.007,214.992 325.507,212.159 332,209.5C 334,210.167 335.333,211.5 336,213.5C 336.637,207.022 340.137,204.022 346.5,204.5C 345.979,200.519 345.646,196.519 345.5,192.5C 344.178,192.67 343.011,192.337 342,191.5C 340,188.167 338,184.833 336,181.5C 335.161,178.86 335.661,176.527 337.5,174.5C 334.455,165.5 335.288,156.833 340,148.5C 341.378,146.787 343.045,145.453 345,144.5C 347.587,128.95 356.42,123.783 371.5,129C 375.878,136.054 381.045,142.554 387,148.5C 388.804,153.58 390.804,158.58 393,163.5C 396.05,159.905 399.216,156.405 402.5,153C 403.448,152.517 404.448,152.351 405.5,152.5C 405.785,150.712 405.452,149.045 404.5,147.5C 396.745,143.174 391.745,136.674 389.5,128C 388.465,126.726 387.298,125.56 386,124.5C 382.316,111.75 380.316,98.7497 380,85.5C 380.333,83.8333 380.667,82.1667 381,80.5C 383.141,76.741 385.641,73.241 388.5,70C 391.928,68.5386 395.095,66.7053 398,64.5C 399,64.8333 400,65.1667 401,65.5C 405.451,63.9971 409.951,62.9971 414.5,62.5 Z M 407.5,277.5 C 406.25,280.006 405.584,282.673 405.5,285.5C 406.675,285.719 407.675,285.386 408.5,284.5C 411.397,278.373 414.564,272.373 418,266.5C 419.615,265.614 421.115,264.614 422.5,263.5C 420.362,269.155 417.528,274.489 414,279.5C 413.219,280.944 413.386,282.277 414.5,283.5C 418.264,277.629 422.264,271.962 426.5,266.5C 423.798,273.89 420.632,280.89 417,287.5C 417.718,288.451 418.551,288.617 419.5,288C 423.667,283.167 427.833,278.333 432,273.5C 432.167,273.833 432.333,274.167 432.5,274.5C 428.83,281.176 424.664,287.509 420,293.5C 419.517,294.448 419.351,295.448 419.5,296.5C 423.286,296.607 426.286,295.107 428.5,292C 430.402,290.699 432.402,290.032 434.5,290C 425.47,299.364 416.137,308.364 406.5,317C 398.257,319.137 390.257,321.97 382.5,325.5C 380.938,328.963 380.105,332.63 380,336.5C 379.592,338.41 378.425,339.41 376.5,339.5C 362.831,338.844 349.165,338.011 335.5,337C 332.387,333.887 329.221,330.721 326,327.5C 322.836,320.352 320.17,313.019 318,305.5C 317.29,304.027 316.124,303.36 314.5,303.5C 314.083,299.165 313.583,294.832 313,290.5C 305.639,271.557 304.806,252.391 310.5,233C 309.767,231.234 309.433,229.401 309.5,227.5C 310.833,227.5 312.167,227.5 313.5,227.5C 312.026,224.673 312.36,222.173 314.5,220C 318.936,218.73 322.936,216.73 326.5,214C 328.813,213.338 331.146,212.838 333.5,212.5C 333.215,214.288 333.548,215.955 334.5,217.5C 335.85,216.05 337.516,215.383 339.5,215.5C 338.955,207.846 341.955,205.679 348.5,209C 349.763,202.443 349.263,195.943 347,189.5C 346,188.167 345,188.167 344,189.5C 341.713,186.22 339.88,182.72 338.5,179C 339.167,177.667 339.833,176.333 340.5,175C 337.855,167.456 338.022,159.956 341,152.5C 342.281,149.553 344.281,147.219 347,145.5C 348.75,142.754 349.75,139.754 350,136.5C 350.785,134.714 351.951,133.214 353.5,132C 358.382,130.445 363.382,130.112 368.5,131C 371.578,132.526 373.412,135.026 374,138.5C 383.241,146.139 388.741,155.973 390.5,168C 389.098,176.176 387.598,184.342 386,192.5C 383.184,202.318 376.851,208.318 367,210.5C 361.653,208.161 357.153,204.661 353.5,200C 352.668,199.312 352.002,199.479 351.5,200.5C 360.251,215.01 370.751,216.343 383,204.5C 385.269,200.962 387.269,197.295 389,193.5C 390.042,186.665 391.709,179.999 394,173.5C 394.975,176.76 396.142,179.927 397.5,183C 394.282,188.603 391.449,194.437 389,200.5C 385.124,212.488 386.291,223.988 392.5,235C 393.448,235.483 394.448,235.649 395.5,235.5C 390.317,225.404 388.817,214.737 391,203.5C 394.07,196.533 397.236,189.7 400.5,183C 398.658,178.306 397.324,173.473 396.5,168.5C 398.274,165.285 399.774,161.952 401,158.5C 402.731,156.383 404.898,154.883 407.5,154C 408.071,152.795 408.738,151.628 409.5,150.5C 414.782,150.13 419.449,148.297 423.5,145C 422.975,144.308 422.308,143.808 421.5,143.5C 410.671,148.663 402.171,145.996 396,135.5C 394.433,130.051 391.766,125.385 388,121.5C 387.811,117.83 386.977,114.33 385.5,111C 385.833,110 386.167,109 386.5,108C 380.672,96.4758 381.172,85.3092 388,74.5C 391.508,72.4129 394.842,70.0796 398,67.5C 398.725,68.0585 399.558,68.3918 400.5,68.5C 402.5,67.8333 404.5,67.1667 406.5,66.5C 409.012,67.7557 411.512,67.7557 414,66.5C 416.959,68.1703 419.959,68.5036 423,67.5C 425.306,70.8948 428.14,73.7281 431.5,76C 436.025,76.3823 437.691,78.8823 436.5,83.5C 437.5,83.5 438.5,83.5 439.5,83.5C 439.104,86.4822 439.771,89.1489 441.5,91.5C 438.363,95.5888 439.196,98.5888 444,100.5C 444.317,105.605 443.65,110.605 442,115.5C 440.333,116.5 438.667,117.5 437,118.5C 437.225,123.888 435.725,128.722 432.5,133C 433.833,133.333 435.167,133.667 436.5,134C 435.396,135.131 435.729,135.965 437.5,136.5C 438.265,142.791 437.098,148.791 434,154.5C 430.667,157.833 427.333,161.167 424,164.5C 423.014,166.778 422.18,169.111 421.5,171.5C 423.121,189.108 424.288,206.775 425,224.5C 427.119,236.878 429.119,249.211 431,261.5C 429.887,260.289 428.72,260.289 427.5,261.5C 426.123,258.305 424.123,257.805 421.5,260C 415.506,264.912 409.839,270.079 404.5,275.5C 400.431,265.892 397.931,255.892 397,245.5C 394.718,241.282 391.718,237.616 388,234.5C 386.057,230.274 383.89,226.274 381.5,222.5C 381.167,223.167 380.833,223.833 380.5,224.5C 381.664,227.495 382.83,230.495 384,233.5C 387.716,237.548 391.05,241.882 394,246.5C 395.037,257.816 397.87,268.649 402.5,279C 399.944,285.336 397.777,291.836 396,298.5C 394.786,300.049 393.286,301.215 391.5,302C 388.11,302.246 384.777,302.746 381.5,303.5C 374.202,302.041 366.868,300.707 359.5,299.5C 360.077,297.894 360.41,296.228 360.5,294.5C 360.496,281.842 357.829,269.842 352.5,258.5C 352.167,259.333 351.833,260.167 351.5,261C 355.813,273.154 357.646,285.654 357,298.5C 351.552,300.051 346.052,301.551 340.5,303C 339.007,304.156 339.174,304.99 341,305.5C 346.103,304.179 351.27,303.179 356.5,302.5C 365.539,303.574 374.539,304.908 383.5,306.5C 390.3,306.749 395.467,304.083 399,298.5C 400.344,293.819 401.677,289.153 403,284.5C 404.026,281.761 405.526,279.428 407.5,277.5 Z M 441.5,137.5 C 442.41,139.019 443.243,140.685 444,142.5C 446.25,143.708 448.417,145.041 450.5,146.5C 445.029,152.136 441.529,158.803 440,166.5C 437.057,165.065 434.223,163.398 431.5,161.5C 437.842,154.853 441.175,146.853 441.5,137.5 Z M 472.5,385.5 C 472.5,383.833 472.5,382.167 472.5,380.5C 471.325,380.281 470.325,380.614 469.5,381.5C 468.586,383.664 467.419,385.664 466,387.5C 467.128,376.589 469.128,365.589 472,354.5C 480.003,344.525 485.336,333.192 488,320.5C 489.956,307.067 489.956,293.733 488,280.5C 488.408,275.642 490.741,272.309 495,270.5C 497.544,273.08 500.044,273.08 502.5,270.5C 498.16,266.68 493.66,266.68 489,270.5C 487.787,272.925 486.621,275.259 485.5,277.5C 485.5,275.833 485.5,274.167 485.5,272.5C 484.325,272.719 483.325,272.386 482.5,271.5C 483.711,270.126 484.711,268.626 485.5,267C 483.652,264.646 481.986,262.146 480.5,259.5C 481.993,257.636 482.66,255.47 482.5,253C 481.731,247.422 480.564,241.922 479,236.5C 475.891,229.949 473.058,223.282 470.5,216.5C 469.675,215.614 468.675,215.281 467.5,215.5C 472.428,226.043 476.261,237.043 479,248.5C 479.887,252.413 479.387,256.08 477.5,259.5C 478.532,262.391 480.199,264.891 482.5,267C 478.5,270 478.5,273 482.5,276C 481.427,277.313 480.76,278.813 480.5,280.5C 481.535,283.233 483.368,285.233 486,286.5C 488.383,306.413 485.383,325.413 477,343.5C 473.947,346.887 471.28,350.553 469,354.5C 467.544,360.644 466.044,366.644 464.5,372.5C 464.5,371.5 464.5,370.5 464.5,369.5C 459.111,370.783 453.778,371.95 448.5,373C 449.672,365.207 449.506,357.373 448,349.5C 443.344,321.936 439.344,294.269 436,266.5C 428.278,233.622 424.945,200.288 426,166.5C 426.804,165.196 427.971,164.529 429.5,164.5C 432.6,165.758 435.6,167.258 438.5,169C 439.5,169.667 440.5,169.667 441.5,169C 443.513,164.642 445.346,160.142 447,155.5C 449.043,153.288 451.209,151.288 453.5,149.5C 465.284,152.446 476.617,156.612 487.5,162C 493.274,168.385 498.441,175.218 503,182.5C 508.133,196.095 513.8,209.428 520,222.5C 523.458,234.451 523.291,246.284 519.5,258C 519.833,258.333 520.167,258.667 520.5,259C 517.976,261.446 515.643,264.112 513.5,267C 513.903,268.473 514.57,269.806 515.5,271C 512.187,273.239 511.853,275.739 514.5,278.5C 512.015,286.408 509.848,294.408 508,302.5C 506.411,318.185 503.244,333.518 498.5,348.5C 498.709,349.086 499.043,349.586 499.5,350C 498.56,359.942 496.726,369.775 494,379.5C 490.38,379.784 487.88,381.617 486.5,385C 481.808,386.186 477.141,386.353 472.5,385.5 Z M 428.5,272.5 C 429.363,269.041 430.53,265.708 432,262.5C 434.866,267.595 433.699,270.928 428.5,272.5 Z M 433.5,278.5 C 434.768,280.905 435.435,283.572 435.5,286.5C 432.779,287.141 430.112,287.641 427.5,288C 430.146,285.198 432.146,282.032 433.5,278.5 Z M 464.5,372.5 C 463.412,375.429 462.079,378.263 460.5,381C 460.82,382.653 461.82,383.653 463.5,384C 462.577,386.041 462.244,388.208 462.5,390.5C 465.044,390.896 467.211,390.229 469,388.5C 472.243,388.33 475.576,388.663 479,389.5C 481.795,388.815 484.628,388.315 487.5,388C 488.743,386.846 489.743,385.512 490.5,384C 492.676,383.837 494.509,383.004 496,381.5C 499.601,370.431 501.934,359.097 503,347.5C 505.963,345.539 508.629,343.206 511,340.5C 511.582,344.824 512.082,349.157 512.5,353.5C 510.568,383.227 506.068,412.56 499,441.5C 497.956,451.015 496.79,460.515 495.5,470C 497.014,477.275 498.68,484.608 500.5,492C 497.399,509.427 498.066,526.761 502.5,544C 502.675,548.094 502.342,552.261 501.5,556.5C 502.483,561.954 503.15,567.454 503.5,573C 503.572,576.29 503.072,579.456 502,582.5C 493.818,585.691 491.651,591.191 495.5,599C 493.742,601.443 492.075,603.943 490.5,606.5C 493.415,610.335 495.248,614.668 496,619.5C 498.088,628.066 498.755,636.732 498,645.5C 489.503,655.781 479.003,658.947 466.5,655C 464.959,652.084 463.293,649.251 461.5,646.5C 463.15,640.286 462.817,634.286 460.5,628.5C 466.849,621.281 469.016,612.948 467,603.5C 474.8,605.247 482.633,605.414 490.5,604C 491.337,602.989 491.67,601.822 491.5,600.5C 487.663,601.083 483.83,601.75 480,602.5C 475.116,602.228 470.45,601.228 466,599.5C 464.245,596.424 464.078,593.258 465.5,590C 465.089,586.613 464.423,583.28 463.5,580C 463.96,578.699 464.294,577.366 464.5,576C 463.756,568.857 463.256,561.691 463,554.5C 460.058,544.475 459.225,534.308 460.5,524C 459.626,518.63 458.626,513.297 457.5,508C 457.873,503.511 458.873,499.177 460.5,495C 457.963,491.441 455.796,487.608 454,483.5C 453.037,477.535 452.537,471.535 452.5,465.5C 456.527,464.861 460.527,464.028 464.5,463C 465.097,461.938 465.43,460.772 465.5,459.5C 463.887,454.94 461.72,450.607 459,446.5C 454.689,442.511 450.856,438.177 447.5,433.5C 442.746,425.767 438.08,417.934 433.5,410C 428.392,408.386 423.225,407.22 418,406.5C 417.031,385.169 414.864,364.002 411.5,343C 415.288,343.207 419.122,343.707 423,344.5C 427.395,343.138 431.895,342.304 436.5,342C 437.973,341.29 438.64,340.124 438.5,338.5C 429.869,340.432 421.202,340.765 412.5,339.5C 411.183,332.716 409.183,326.216 406.5,320C 408.833,318.333 411.167,316.667 413.5,315C 420.658,307.209 428.158,299.709 436,292.5C 439.44,314.141 442.773,335.807 446,357.5C 446.471,363.538 446.471,369.538 446,375.5C 446.893,376.081 447.893,376.415 449,376.5C 454.119,374.976 459.285,373.643 464.5,372.5 Z M 314.5,306.5 C 317.204,313.762 320.037,321.096 323,328.5C 326.517,331.717 329.684,335.217 332.5,339C 333.5,339.333 334.5,339.667 335.5,340C 350.161,341.259 364.828,341.926 379.5,342C 382.804,338.19 384.304,333.69 384,328.5C 390.586,325.357 397.419,322.691 404.5,320.5C 406.203,325.535 407.537,330.702 408.5,336C 405.701,337.136 405.868,338.969 409,341.5C 411.754,363.442 413.754,385.442 415,407.5C 415.833,408.333 416.667,409.167 417.5,410C 422.809,409.975 427.809,411.142 432.5,413.5C 435.807,418.912 438.64,424.579 441,430.5C 445.667,435.833 450.333,441.167 455,446.5C 457.804,451.102 460.304,455.768 462.5,460.5C 449.547,462.567 437.547,467.067 426.5,474C 416.989,476.842 407.822,480.675 399,485.5C 398.474,483.392 397.474,481.059 396,478.5C 395.275,477.941 394.442,477.608 393.5,477.5C 390.364,479.57 387.031,481.404 383.5,483C 380.129,483.744 376.963,483.244 374,481.5C 372.266,482.249 370.433,482.749 368.5,483C 365.915,485.258 363.082,487.091 360,488.5C 360.692,483.52 358.692,480.52 354,479.5C 350.752,479.892 347.752,480.892 345,482.5C 338.777,479.989 332.611,479.989 326.5,482.5C 325.911,479.163 324.911,475.996 323.5,473C 319.714,471.596 315.88,470.43 312,469.5C 312.253,458.175 312.253,446.841 312,435.5C 308.951,411.222 306.451,386.889 304.5,362.5C 304.746,355.433 305.58,348.433 307,341.5C 309.531,334.239 311.865,326.906 314,319.5C 314.499,315.179 314.666,310.846 314.5,306.5 Z M 509.5,307.5 C 511.896,314.185 514.229,321.018 516.5,328C 513.529,333.402 509.695,338.236 505,342.5C 505.518,334.746 506.851,327.079 509,319.5C 509.499,315.514 509.666,311.514 509.5,307.5 Z M 449.5,466.5 C 449.646,473.006 450.48,479.673 452,486.5C 453.672,489.656 455.505,492.656 457.5,495.5C 455.794,499.489 454.794,503.656 454.5,508C 455.42,513.513 456.42,519.013 457.5,524.5C 456.305,534.312 457.138,543.978 460,553.5C 460.199,561.216 460.699,568.882 461.5,576.5C 460.978,577.607 460.645,578.774 460.5,580C 461.374,582.955 462.041,585.955 462.5,589C 462.325,590.658 461.658,591.991 460.5,593C 454.414,592.943 448.581,593.11 443,593.5C 442.127,593.265 441.293,592.931 440.5,592.5C 439.807,583.596 438.14,574.929 435.5,566.5C 435.673,564.962 436.006,563.462 436.5,562C 431.291,549.7 428.124,536.866 427,523.5C 423.94,516.499 421.94,509.165 421,501.5C 416.763,498.945 412.763,495.945 409,492.5C 408.223,489.571 408.39,486.737 409.5,484C 414.047,481.56 418.713,479.393 423.5,477.5C 424.167,477.833 424.833,478.167 425.5,478.5C 432.766,472.867 440.766,468.867 449.5,466.5 Z M 405.5,486.5 C 405.326,489.874 404.826,493.207 404,496.5C 399.353,499.945 394.186,502.445 388.5,504C 380.642,504.905 372.975,506.571 365.5,509C 348.075,515.771 330.409,521.771 312.5,527C 303.271,531.229 294.271,535.896 285.5,541C 281.727,544.718 278.56,548.884 276,553.5C 273.443,556.192 270.609,558.525 267.5,560.5C 260.659,569.17 253.659,577.67 246.5,586C 242.316,587.165 239.483,585.665 238,581.5C 236.132,569.261 237.799,557.595 243,546.5C 246.038,543.797 248.705,540.797 251,537.5C 255.674,527.465 260.341,517.465 265,507.5C 273.018,499.647 277.852,501.314 279.5,512.5C 285.189,512.911 290.522,511.744 295.5,509C 306.882,501.973 317.549,493.973 327.5,485C 331.072,483.595 334.739,483.262 338.5,484C 339.973,484.71 340.64,485.876 340.5,487.5C 344.848,486.048 349.181,484.381 353.5,482.5C 354.442,482.608 355.275,482.941 356,483.5C 356.333,485.833 356.667,488.167 357,490.5C 357.725,491.059 358.558,491.392 359.5,491.5C 364.216,488.958 369.049,486.625 374,484.5C 381.15,487.572 387.483,486.239 393,480.5C 394.24,482.923 394.74,485.423 394.5,488C 398.357,488.758 402.023,488.258 405.5,486.5 Z M 407.5,495.5 C 411.646,498.22 415.313,501.387 418.5,505C 418.603,512 420.436,518.5 424,524.5C 424.828,535.976 427.495,546.976 432,557.5C 433.465,567.475 434.965,577.308 436.5,587C 435.773,590.839 434.273,594.339 432,597.5C 426.26,601.57 421.594,606.57 418,612.5C 417.316,613.784 417.483,614.951 418.5,616C 420.167,616.333 421.833,616.667 423.5,617C 420.998,618.496 419.331,620.663 418.5,623.5C 415.771,624.062 414.271,625.728 414,628.5C 410.256,633.08 407.923,632.413 407,626.5C 404.463,623.628 401.63,621.128 398.5,619C 386.784,614.391 375.617,608.891 365,602.5C 364.833,600.667 364.667,598.833 364.5,597C 368.818,569.411 373.651,541.911 379,514.5C 379.883,511.898 381.383,509.731 383.5,508C 390.005,506.61 396.338,504.61 402.5,502C 404.79,500.223 406.457,498.056 407.5,495.5 Z M 377.5,509.5 C 372.574,531.718 368.074,554.051 364,576.5C 362.586,585.468 361.919,594.468 362,603.5C 373.908,610.873 386.408,617.373 399.5,623C 402.069,625.479 404.402,628.146 406.5,631C 405.167,633 403.833,635 402.5,637C 397.903,638.159 393.236,638.992 388.5,639.5C 378.78,635.816 368.78,633.15 358.5,631.5C 350.614,633.438 342.614,633.938 334.5,633C 332.955,631.178 332.288,629.011 332.5,626.5C 333.757,617.715 335.59,609.048 338,600.5C 339.544,581.195 339.877,561.862 339,542.5C 338.478,536.035 337.312,529.701 335.5,523.5C 349.195,517.824 363.195,513.157 377.5,509.5 Z M 445.5,636.5 C 445.719,635.325 445.386,634.325 444.5,633.5C 433.24,640.722 421.24,642.556 408.5,639C 407.62,637.644 407.286,636.144 407.5,634.5C 412.527,634.634 415.694,632.301 417,627.5C 418.566,628.061 419.899,627.394 421,625.5C 422.817,622.343 424.65,619.177 426.5,616C 426.355,615.228 426.022,614.561 425.5,614C 423.833,613.667 422.167,613.333 420.5,613C 426.262,606.615 432.262,600.449 438.5,594.5C 441.748,595.645 445.081,596.479 448.5,597C 450.817,600.982 453.817,604.315 457.5,607C 460.025,607.896 462.192,607.396 464,605.5C 465.301,611.958 464.301,617.958 461,623.5C 456.57,628.767 451.404,633.101 445.5,636.5 Z M 460.5,595.5 C 464.381,598.957 464.047,601.957 459.5,604.5C 456.391,603.226 454.058,601.06 452.5,598C 455.379,597.454 458.046,596.621 460.5,595.5 Z M 445.5,636.5 C 440.469,645.356 432.969,651.022 423,653.5C 417.124,653.295 411.624,651.795 406.5,649C 404.544,645.405 404.044,641.572 405,637.5C 405.785,639.286 406.951,640.786 408.5,642C 413.087,643.521 417.587,644.354 422,644.5C 430.298,642.973 438.132,640.307 445.5,636.5 Z M 497.5,650.5 C 496.23,658.609 491.563,663.776 483.5,666C 477.358,668.149 471.358,667.815 465.5,665C 463.43,664.052 461.93,662.552 461,660.5C 460.333,657.167 460.333,653.833 461,650.5C 466.664,660.559 474.83,663.059 485.5,658C 489.917,656.067 493.917,653.567 497.5,650.5 Z"/></g>
<g><path style="opacity:0.468" fill="#000000" d="M 447.5,433.5 C 446.156,422.863 444.989,412.197 444,401.5C 441.613,398.623 438.946,395.956 436,393.5C 435.219,392.056 435.386,390.723 436.5,389.5C 439.946,393.287 443.446,396.954 447,400.5C 448.274,411.174 449.274,421.84 450,432.5C 449.329,433.252 448.496,433.586 447.5,433.5 Z"/></g>
<g><path style="opacity:0.786" fill="#000000" d="M 441.5,677.5 C 443.857,677.337 446.19,677.503 448.5,678C 452.48,687.135 452.48,696.302 448.5,705.5C 452.736,706.903 455.902,709.569 458,713.5C 459.245,719.789 460.245,726.122 461,732.5C 461.667,733.833 462.333,735.167 463,736.5C 468.417,727.331 474.083,718.331 480,709.5C 481.741,714.026 481.075,718.36 478,722.5C 474.208,729.255 470.041,735.755 465.5,742C 460.902,743.091 458.069,741.257 457,736.5C 455.667,729.167 454.333,721.833 453,714.5C 449.805,710.009 446.471,709.676 443,713.5C 442.681,723.857 442.015,734.191 441,744.5C 440.282,745.451 439.449,745.617 438.5,745C 437.796,736.242 437.796,727.408 438.5,718.5C 437.5,718.5 436.5,718.5 435.5,718.5C 435.414,714.682 436.081,711.016 437.5,707.5C 436.035,699.705 435.869,692.038 437,684.5C 438.012,681.798 439.512,679.465 441.5,677.5 Z M 444.5,681.5 C 448.727,689.769 448.06,697.769 442.5,705.5C 439.252,697.048 439.918,689.048 444.5,681.5 Z"/></g>
<g><path style="opacity:0.792" fill="#000000" d="M 380.5,683.5 C 381.833,683.5 383.167,683.5 384.5,683.5C 382.34,695.479 380.173,707.479 378,719.5C 376.003,727.587 376.169,735.587 378.5,743.5C 381.638,738.529 384.972,733.696 388.5,729C 393.372,727.885 394.539,729.385 392,733.5C 388.109,738.393 384.609,743.56 381.5,749C 377.086,750.875 374.253,749.375 373,744.5C 372.639,741.475 372.139,738.475 371.5,735.5C 372.615,725.829 373.449,716.163 374,706.5C 371.595,713.047 369.595,719.714 368,726.5C 365.685,732.366 363.019,732.7 360,727.5C 357.934,722.637 356.268,717.637 355,712.5C 352.929,725.595 350.429,738.595 347.5,751.5C 346.5,751.5 345.5,751.5 344.5,751.5C 348.066,731.305 350.566,710.972 352,690.5C 353,689.167 354,689.167 355,690.5C 356.825,698.134 358.492,705.801 360,713.5C 360.875,716.628 362.042,719.628 363.5,722.5C 366.752,708.34 372.419,695.34 380.5,683.5 Z"/></g>
<g><path style="opacity:0.789" fill="#000000" d="M 409.5,709.5 C 417.748,708.632 420.915,712.298 419,720.5C 417.634,722.37 416.467,724.37 415.5,726.5C 417.022,729.908 419.188,730.241 422,727.5C 425.101,728.709 425.268,730.375 422.5,732.5C 424.226,734.228 425.559,736.228 426.5,738.5C 426.167,739.5 425.5,740.167 424.5,740.5C 423.019,739.52 421.685,738.353 420.5,737C 419.5,736.333 418.5,736.333 417.5,737C 414.593,740.151 411.926,743.484 409.5,747C 404.614,748.756 401.947,747.089 401.5,742C 402.244,736.019 404.244,730.519 407.5,725.5C 405.673,719.744 406.34,714.411 409.5,709.5 Z M 411.5,714.5 C 412.5,714.5 413.5,714.5 414.5,714.5C 414.97,717.346 414.137,719.679 412,721.5C 411.503,719.19 411.337,716.857 411.5,714.5 Z M 410.5,730.5 C 411.87,730.856 412.87,731.69 413.5,733C 405.457,744.458 404.457,743.624 410.5,730.5 Z"/></g>
</svg>
